<svg width="1512" height="982" viewBox="0 0 1512 982" fill="none" xmlns="http://www.w3.org/2000/svg">
<g clip-path="url(#clip0_140_9)">
<rect width="1512" height="982" fill="#F06779"/>
<path d="M76.2934 80.0124L80.9364 73.9014L71.5664 34.6616L81.367 21.7625C82.6667 20.052 83.2587 17.9143 83.013 15.8199C82.7673 13.7254 81.7038 11.8456 80.0566 10.5941C78.4095 9.3426 76.3135 8.82186 74.2297 9.14644C72.146 9.47101 70.2453 10.6143 68.9456 12.3249L58.8877 25.5626L18.5722 27.0518L14.1889 32.8209L45.9166 42.6346L34.6434 57.4718L20.4271 56.8432L15.5267 63.2927L35.9538 68.6402L46.5802 86.8868L51.4805 80.4373L47.0648 66.9095L58.5438 51.8014L76.2934 80.0124Z" fill="#FC9DA9" fill-opacity="0.09"/>
<path d="M83.7625 126.341H92.3478V117.417H83.7625V126.341ZM88.0552 148.265C83.8487 148.265 79.7806 147.509 75.8508 145.997C71.9263 144.485 68.1611 142.564 64.5552 140.232V132.916C64.5552 131.109 65.174 129.562 66.4117 128.275C67.6493 126.989 69.1403 126.344 70.8845 126.341H79.8458V116.477C79.8458 115.635 80.1461 114.903 80.7467 114.278C81.3472 113.654 82.0509 113.342 82.8578 113.342H93.2526C94.062 113.342 94.767 113.654 95.3676 114.278C95.9681 114.903 96.2684 115.635 96.2684 116.477V126.341H105.23C106.969 126.341 108.457 126.986 109.695 128.275C110.932 129.564 111.553 131.111 111.555 132.916V140.232C107.952 142.566 104.187 144.488 100.26 145.997C96.3324 147.509 92.2643 148.265 88.0552 148.265ZM70.8845 181.302V179.267C69.1429 179.267 67.6533 178.622 66.4156 177.333C65.1779 176.044 64.5578 174.498 64.5552 172.696V145.012C67.9105 147.004 71.3793 148.646 74.9618 149.938C78.5442 151.224 82.2559 152.009 86.0968 152.291V154.371C86.0968 154.949 86.2848 155.434 86.6608 155.825C87.0368 156.216 87.5029 156.41 88.0591 156.407C88.6153 156.404 89.08 156.21 89.4534 155.825C89.8268 155.439 90.0135 154.955 90.0135 154.371V152.291C93.8545 152.009 97.5662 151.223 101.149 149.934C104.734 148.645 108.203 147.002 111.555 145.008V172.692C111.555 174.502 110.935 176.05 109.695 177.337C108.454 178.623 106.966 179.268 105.23 179.271V181.306C105.23 181.884 105.039 182.368 104.658 182.756C104.277 183.144 103.807 183.339 103.248 183.342C102.72 183.342 102.308 183.125 102.01 182.691C101.71 182.254 101.476 181.792 101.309 181.306V179.267H74.8012V181.302C74.8012 181.88 74.6106 182.363 74.2293 182.752C73.8507 183.142 73.3807 183.338 72.8193 183.338C72.2919 183.338 71.878 183.121 71.5778 182.686C71.2801 182.249 71.049 181.788 70.8845 181.302Z" fill="#FC9DA9" fill-opacity="0.09"/>
<path d="M157.694 113.197L162.282 114.493C165.208 115.323 166.667 115.738 167.657 116.776C168.647 117.815 168.99 119.29 169.671 122.244L170.744 126.887C173.804 140.105 175.331 146.712 179.283 146.961C183.235 147.202 186.001 140.854 191.523 128.167L206.683 93.3328C211.021 83.3714 213.189 78.3868 210.755 75.8331C208.321 73.2794 203.226 75.1949 193.045 79.0258L157.443 92.4152C144.476 97.2931 137.988 99.7358 138.034 103.688C138.079 107.641 144.618 109.488 157.694 113.197Z" fill="#FC9DA9" fill-opacity="0.09"/>
<path d="M76.2934 282.012L80.9364 275.901L71.5664 236.662L81.367 223.763C82.6667 222.052 83.2587 219.914 83.013 217.82C82.7673 215.725 81.7038 213.846 80.0566 212.594C78.4095 211.343 76.3135 210.822 74.2297 211.146C72.146 211.471 70.2453 212.614 68.9456 214.325L58.8877 227.563L18.5722 229.052L14.1889 234.821L45.9166 244.635L34.6434 259.472L20.4271 258.843L15.5267 265.293L35.9538 270.64L46.5802 288.887L51.4805 282.437L47.0648 268.909L58.5438 253.801L76.2934 282.012Z" fill="#FC9DA9" fill-opacity="0.09"/>
<path d="M83.7625 328.341H92.3478V319.417H83.7625V328.341ZM88.0552 350.265C83.8487 350.265 79.7806 349.509 75.8508 347.997C71.9263 346.485 68.1611 344.564 64.5552 342.232V334.916C64.5552 333.109 65.174 331.562 66.4117 330.275C67.6493 328.989 69.1403 328.344 70.8845 328.341H79.8458V318.477C79.8458 317.635 80.1461 316.903 80.7467 316.278C81.3472 315.654 82.0509 315.342 82.8578 315.342H93.2526C94.062 315.342 94.767 315.654 95.3676 316.278C95.9681 316.903 96.2684 317.635 96.2684 318.477V328.341H105.23C106.969 328.341 108.457 328.986 109.695 330.275C110.932 331.564 111.553 333.111 111.555 334.916V342.232C107.952 344.566 104.187 346.488 100.26 347.997C96.3324 349.509 92.2643 350.265 88.0552 350.265ZM70.8845 383.302V381.267C69.1429 381.267 67.6533 380.622 66.4156 379.333C65.1779 378.044 64.5578 376.498 64.5552 374.696V347.012C67.9105 349.004 71.3793 350.646 74.9618 351.938C78.5442 353.224 82.2559 354.009 86.0968 354.291V356.371C86.0968 356.949 86.2848 357.434 86.6608 357.825C87.0368 358.216 87.5029 358.41 88.0591 358.407C88.6153 358.404 89.08 358.21 89.4534 357.825C89.8268 357.439 90.0135 356.955 90.0135 356.371V354.291C93.8545 354.009 97.5662 353.223 101.149 351.934C104.734 350.645 108.203 349.002 111.555 347.008V374.692C111.555 376.502 110.935 378.05 109.695 379.337C108.454 380.623 106.966 381.268 105.23 381.271V383.306C105.23 383.884 105.039 384.368 104.658 384.756C104.277 385.144 103.807 385.339 103.248 385.342C102.72 385.342 102.308 385.125 102.01 384.691C101.71 384.254 101.476 383.792 101.309 383.306V381.267H74.8012V383.302C74.8012 383.88 74.6106 384.363 74.2293 384.752C73.8507 385.142 73.3807 385.338 72.8193 385.338C72.2919 385.338 71.878 385.121 71.5778 384.686C71.2801 384.249 71.049 383.788 70.8845 383.302Z" fill="#FC9DA9" fill-opacity="0.09"/>
<path d="M157.694 315.197L162.282 316.493C165.208 317.323 166.667 317.738 167.657 318.776C168.647 319.815 168.99 321.29 169.671 324.244L170.744 328.887C173.804 342.105 175.331 348.712 179.283 348.961C183.235 349.202 186.001 342.854 191.523 330.167L206.683 295.333C211.021 285.371 213.189 280.387 210.755 277.833C208.321 275.279 203.226 277.195 193.045 281.026L157.443 294.415C144.476 299.293 137.988 301.736 138.034 305.688C138.079 309.641 144.618 311.488 157.694 315.197Z" fill="#FC9DA9" fill-opacity="0.09"/>
<path d="M76.2934 486.012L80.9364 479.901L71.5664 440.662L81.367 427.763C82.6667 426.052 83.2587 423.914 83.013 421.82C82.7673 419.725 81.7038 417.846 80.0566 416.594C78.4095 415.343 76.3135 414.822 74.2297 415.146C72.146 415.471 70.2453 416.614 68.9456 418.325L58.8877 431.563L18.5722 433.052L14.1889 438.821L45.9166 448.635L34.6434 463.472L20.4271 462.843L15.5267 469.293L35.9538 474.64L46.5802 492.887L51.4805 486.437L47.0648 472.909L58.5438 457.801L76.2934 486.012Z" fill="#FC9DA9" fill-opacity="0.09"/>
<path d="M83.7625 532.341H92.3478V523.417H83.7625V532.341ZM88.0552 554.265C83.8487 554.265 79.7806 553.509 75.8508 551.997C71.9263 550.485 68.1611 548.564 64.5552 546.232V538.916C64.5552 537.109 65.174 535.562 66.4117 534.275C67.6493 532.989 69.1403 532.344 70.8845 532.341H79.8458V522.477C79.8458 521.635 80.1461 520.903 80.7467 520.278C81.3472 519.654 82.0509 519.342 82.8578 519.342H93.2526C94.062 519.342 94.767 519.654 95.3676 520.278C95.9681 520.903 96.2684 521.635 96.2684 522.477V532.341H105.23C106.969 532.341 108.457 532.986 109.695 534.275C110.932 535.564 111.553 537.111 111.555 538.916V546.232C107.952 548.566 104.187 550.488 100.26 551.997C96.3324 553.509 92.2643 554.265 88.0552 554.265ZM70.8845 587.302V585.267C69.1429 585.267 67.6533 584.622 66.4156 583.333C65.1779 582.044 64.5578 580.498 64.5552 578.696V551.012C67.9105 553.004 71.3793 554.646 74.9618 555.938C78.5442 557.224 82.2559 558.009 86.0968 558.291V560.371C86.0968 560.949 86.2848 561.434 86.6608 561.825C87.0368 562.216 87.5029 562.41 88.0591 562.407C88.6153 562.404 89.08 562.21 89.4534 561.825C89.8268 561.439 90.0135 560.955 90.0135 560.371V558.291C93.8545 558.009 97.5662 557.223 101.149 555.934C104.734 554.645 108.203 553.002 111.555 551.008V578.692C111.555 580.502 110.935 582.05 109.695 583.337C108.454 584.623 106.966 585.268 105.23 585.271V587.306C105.23 587.884 105.039 588.368 104.658 588.756C104.277 589.144 103.807 589.339 103.248 589.342C102.72 589.342 102.308 589.125 102.01 588.691C101.71 588.254 101.476 587.792 101.309 587.306V585.267H74.8012V587.302C74.8012 587.88 74.6106 588.363 74.2293 588.752C73.8507 589.142 73.3807 589.338 72.8193 589.338C72.2919 589.338 71.878 589.121 71.5778 588.686C71.2801 588.249 71.049 587.788 70.8845 587.302Z" fill="#FC9DA9" fill-opacity="0.09"/>
<path d="M157.694 519.197L162.282 520.493C165.208 521.323 166.667 521.738 167.657 522.776C168.647 523.815 168.99 525.29 169.671 528.244L170.744 532.887C173.804 546.105 175.331 552.712 179.283 552.961C183.235 553.202 186.001 546.854 191.523 534.167L206.683 499.333C211.021 489.371 213.189 484.387 210.755 481.833C208.321 479.279 203.226 481.195 193.045 485.026L157.443 498.415C144.476 503.293 137.988 505.736 138.034 509.688C138.079 513.641 144.618 515.488 157.694 519.197Z" fill="#FC9DA9" fill-opacity="0.09"/>
<path d="M76.2934 684.012L80.9364 677.901L71.5664 638.662L81.367 625.763C82.6667 624.052 83.2587 621.914 83.013 619.82C82.7673 617.725 81.7038 615.846 80.0566 614.594C78.4095 613.343 76.3135 612.822 74.2297 613.146C72.146 613.471 70.2453 614.614 68.9456 616.325L58.8877 629.563L18.5722 631.052L14.1889 636.821L45.9166 646.635L34.6434 661.472L20.4271 660.843L15.5267 667.293L35.9538 672.64L46.5802 690.887L51.4805 684.437L47.0648 670.909L58.5438 655.801L76.2934 684.012Z" fill="#FC9DA9" fill-opacity="0.09"/>
<path d="M83.7625 730.341H92.3478V721.417H83.7625V730.341ZM88.0552 752.265C83.8487 752.265 79.7806 751.509 75.8508 749.997C71.9263 748.485 68.1611 746.564 64.5552 744.232V736.916C64.5552 735.109 65.174 733.562 66.4117 732.275C67.6493 730.989 69.1403 730.344 70.8845 730.341H79.8458V720.477C79.8458 719.635 80.1461 718.903 80.7467 718.278C81.3472 717.654 82.0509 717.342 82.8578 717.342H93.2526C94.062 717.342 94.767 717.654 95.3676 718.278C95.9681 718.903 96.2684 719.635 96.2684 720.477V730.341H105.23C106.969 730.341 108.457 730.986 109.695 732.275C110.932 733.564 111.553 735.111 111.555 736.916V744.232C107.952 746.566 104.187 748.488 100.26 749.997C96.3324 751.509 92.2643 752.265 88.0552 752.265ZM70.8845 785.302V783.267C69.1429 783.267 67.6533 782.622 66.4156 781.333C65.1779 780.044 64.5578 778.498 64.5552 776.696V749.012C67.9105 751.004 71.3793 752.646 74.9618 753.938C78.5442 755.224 82.2559 756.009 86.0968 756.291V758.371C86.0968 758.949 86.2848 759.434 86.6608 759.825C87.0368 760.216 87.5029 760.41 88.0591 760.407C88.6153 760.404 89.08 760.21 89.4534 759.825C89.8268 759.439 90.0135 758.955 90.0135 758.371V756.291C93.8545 756.009 97.5662 755.223 101.149 753.934C104.734 752.645 108.203 751.002 111.555 749.008V776.692C111.555 778.502 110.935 780.05 109.695 781.337C108.454 782.623 106.966 783.268 105.23 783.271V785.306C105.23 785.884 105.039 786.368 104.658 786.756C104.277 787.144 103.807 787.339 103.248 787.342C102.72 787.342 102.308 787.125 102.01 786.691C101.71 786.254 101.476 785.792 101.309 785.306V783.267H74.8012V785.302C74.8012 785.88 74.6106 786.363 74.2293 786.752C73.8507 787.142 73.3807 787.338 72.8193 787.338C72.2919 787.338 71.878 787.121 71.5778 786.686C71.2801 786.249 71.049 785.788 70.8845 785.302Z" fill="#FC9DA9" fill-opacity="0.09"/>
<path d="M157.694 717.197L162.282 718.493C165.208 719.323 166.667 719.738 167.657 720.776C168.647 721.815 168.99 723.29 169.671 726.244L170.744 730.887C173.804 744.105 175.331 750.712 179.283 750.961C183.235 751.202 186.001 744.854 191.523 732.167L206.683 697.333C211.021 687.371 213.189 682.387 210.755 679.833C208.321 677.279 203.226 679.195 193.045 683.026L157.443 696.415C144.476 701.293 137.988 703.736 138.034 707.688C138.079 711.641 144.618 713.488 157.694 717.197Z" fill="#FC9DA9" fill-opacity="0.09"/>
<path d="M76.2934 878.012L80.9364 871.901L71.5664 832.662L81.367 819.763C82.6667 818.052 83.2587 815.914 83.013 813.82C82.7673 811.725 81.7038 809.846 80.0566 808.594C78.4095 807.343 76.3135 806.822 74.2297 807.146C72.146 807.471 70.2453 808.614 68.9456 810.325L58.8877 823.563L18.5722 825.052L14.1889 830.821L45.9166 840.635L34.6434 855.472L20.4271 854.843L15.5267 861.293L35.9538 866.64L46.5802 884.887L51.4805 878.437L47.0648 864.909L58.5438 849.801L76.2934 878.012Z" fill="#FC9DA9" fill-opacity="0.09"/>
<path d="M83.7625 924.341H92.3478V915.417H83.7625V924.341ZM88.0552 946.265C83.8487 946.265 79.7806 945.509 75.8508 943.997C71.9263 942.485 68.1611 940.564 64.5552 938.232V930.916C64.5552 929.109 65.174 927.562 66.4117 926.275C67.6493 924.989 69.1403 924.344 70.8845 924.341H79.8458V914.477C79.8458 913.635 80.1461 912.903 80.7467 912.278C81.3472 911.654 82.0509 911.342 82.8578 911.342H93.2526C94.062 911.342 94.767 911.654 95.3676 912.278C95.9681 912.903 96.2684 913.635 96.2684 914.477V924.341H105.23C106.969 924.341 108.457 924.986 109.695 926.275C110.932 927.564 111.553 929.111 111.555 930.916V938.232C107.952 940.566 104.187 942.488 100.26 943.997C96.3324 945.509 92.2643 946.265 88.0552 946.265ZM70.8845 979.302V977.267C69.1429 977.267 67.6533 976.622 66.4156 975.333C65.1779 974.044 64.5578 972.498 64.5552 970.696V943.012C67.9105 945.004 71.3793 946.646 74.9618 947.938C78.5442 949.224 82.2559 950.009 86.0968 950.291V952.371C86.0968 952.949 86.2848 953.434 86.6608 953.825C87.0368 954.216 87.5029 954.41 88.0591 954.407C88.6153 954.404 89.08 954.21 89.4534 953.825C89.8268 953.439 90.0135 952.955 90.0135 952.371V950.291C93.8545 950.009 97.5662 949.223 101.149 947.934C104.734 946.645 108.203 945.002 111.555 943.008V970.692C111.555 972.502 110.935 974.05 109.695 975.337C108.454 976.623 106.966 977.268 105.23 977.271V979.306C105.23 979.884 105.039 980.368 104.658 980.756C104.277 981.144 103.807 981.339 103.248 981.342C102.72 981.342 102.308 981.125 102.01 980.691C101.71 980.254 101.476 979.792 101.309 979.306V977.267H74.8012V979.302C74.8012 979.88 74.6106 980.363 74.2293 980.752C73.8507 981.142 73.3807 981.338 72.8193 981.338C72.2919 981.338 71.878 981.121 71.5778 980.686C71.2801 980.249 71.049 979.788 70.8845 979.302Z" fill="#FC9DA9" fill-opacity="0.09"/>
<path d="M157.694 911.197L162.282 912.493C165.208 913.323 166.667 913.738 167.657 914.776C168.647 915.815 168.99 917.29 169.671 920.244L170.744 924.887C173.804 938.105 175.331 944.712 179.283 944.961C183.235 945.202 186.001 938.854 191.523 926.167L206.683 891.333C211.021 881.371 213.189 876.387 210.755 873.833C208.321 871.279 203.226 873.195 193.045 877.026L157.443 890.415C144.476 895.293 137.988 897.736 138.034 901.688C138.079 905.641 144.618 907.488 157.694 911.197Z" fill="#FC9DA9" fill-opacity="0.09"/>
<path d="M519.849 80.0124L524.492 73.9014L515.122 34.6616L524.922 21.7625C526.222 20.052 526.814 17.9143 526.568 15.8199C526.322 13.7254 525.259 11.8456 523.612 10.5941C521.965 9.3426 519.869 8.82186 517.785 9.14644C515.701 9.47101 513.8 10.6143 512.501 12.3249L502.443 25.5626L462.127 27.0518L457.744 32.8209L489.472 42.6346L478.199 57.4718L463.982 56.8432L459.082 63.2927L479.509 68.6402L490.135 86.8868L495.036 80.4373L490.62 66.9095L502.099 51.8014L519.849 80.0124Z" fill="#FC9DA9" fill-opacity="0.09"/>
<path d="M527.318 126.341H535.903V117.417H527.318V126.341ZM531.61 148.265C527.404 148.265 523.336 147.509 519.406 145.997C515.482 144.485 511.716 142.564 508.11 140.232V132.916C508.11 131.109 508.729 129.562 509.967 128.275C511.205 126.989 512.695 126.344 514.44 126.341H523.401V116.477C523.401 115.635 523.701 114.903 524.302 114.278C524.902 113.654 525.606 113.342 526.413 113.342H536.808C537.617 113.342 538.322 113.654 538.923 114.278C539.523 114.903 539.824 115.635 539.824 116.477V126.341H548.785C550.524 126.341 552.012 126.986 553.25 128.275C554.488 129.564 555.108 131.111 555.11 132.916V140.232C551.507 142.566 547.742 144.488 543.815 145.997C539.888 147.509 535.819 148.265 531.61 148.265ZM514.44 181.302V179.267C512.698 179.267 511.208 178.622 509.971 177.333C508.733 176.044 508.113 174.498 508.11 172.696V145.012C511.466 147.004 514.934 148.646 518.517 149.938C522.099 151.224 525.811 152.009 529.652 152.291V154.371C529.652 154.949 529.84 155.434 530.216 155.825C530.592 156.216 531.058 156.41 531.614 156.407C532.17 156.404 532.635 156.21 533.009 155.825C533.382 155.439 533.569 154.955 533.569 154.371V152.291C537.41 152.009 541.121 151.223 544.704 149.934C548.289 148.645 551.758 147.002 555.11 145.008V172.692C555.11 174.502 554.49 176.05 553.25 177.337C552.01 178.623 550.521 179.268 548.785 179.271V181.306C548.785 181.884 548.594 182.368 548.213 182.756C547.832 183.144 547.362 183.339 546.803 183.342C546.276 183.342 545.863 183.125 545.565 182.691C545.265 182.254 545.031 181.792 544.864 181.306V179.267H518.356V181.302C518.356 181.88 518.166 182.363 517.785 182.752C517.406 183.142 516.936 183.338 516.375 183.338C515.847 183.338 515.433 183.121 515.133 182.686C514.835 182.249 514.604 181.788 514.44 181.302Z" fill="#FC9DA9" fill-opacity="0.09"/>
<path d="M601.249 113.197L605.838 114.493C608.763 115.323 610.222 115.738 611.212 116.776C612.202 117.815 612.545 119.29 613.226 122.244L614.299 126.887C617.359 140.105 618.887 146.712 622.838 146.961C626.791 147.202 629.556 140.854 635.079 128.167L650.238 93.3328C654.576 83.3714 656.745 78.3868 654.31 75.8331C651.876 73.2794 646.782 75.1949 636.6 79.0258L600.998 92.4152C588.031 97.2931 581.544 99.7358 581.589 103.688C581.635 107.641 588.173 109.488 601.249 113.197Z" fill="#FC9DA9" fill-opacity="0.09"/>
<path d="M519.849 282.012L524.492 275.901L515.122 236.662L524.922 223.763C526.222 222.052 526.814 219.914 526.568 217.82C526.322 215.725 525.259 213.846 523.612 212.594C521.965 211.343 519.869 210.822 517.785 211.146C515.701 211.471 513.8 212.614 512.501 214.325L502.443 227.563L462.127 229.052L457.744 234.821L489.472 244.635L478.199 259.472L463.982 258.843L459.082 265.293L479.509 270.64L490.135 288.887L495.036 282.437L490.62 268.909L502.099 253.801L519.849 282.012Z" fill="#FC9DA9" fill-opacity="0.09"/>
<path d="M527.318 328.341H535.903V319.417H527.318V328.341ZM531.61 350.265C527.404 350.265 523.336 349.509 519.406 347.997C515.482 346.485 511.716 344.564 508.11 342.232V334.916C508.11 333.109 508.729 331.562 509.967 330.275C511.205 328.989 512.695 328.344 514.44 328.341H523.401V318.477C523.401 317.635 523.701 316.903 524.302 316.278C524.902 315.654 525.606 315.342 526.413 315.342H536.808C537.617 315.342 538.322 315.654 538.923 316.278C539.523 316.903 539.824 317.635 539.824 318.477V328.341H548.785C550.524 328.341 552.012 328.986 553.25 330.275C554.488 331.564 555.108 333.111 555.11 334.916V342.232C551.507 344.566 547.742 346.488 543.815 347.997C539.888 349.509 535.819 350.265 531.61 350.265ZM514.44 383.302V381.267C512.698 381.267 511.208 380.622 509.971 379.333C508.733 378.044 508.113 376.498 508.11 374.696V347.012C511.466 349.004 514.934 350.646 518.517 351.938C522.099 353.224 525.811 354.009 529.652 354.291V356.371C529.652 356.949 529.84 357.434 530.216 357.825C530.592 358.216 531.058 358.41 531.614 358.407C532.17 358.404 532.635 358.21 533.009 357.825C533.382 357.439 533.569 356.955 533.569 356.371V354.291C537.41 354.009 541.121 353.223 544.704 351.934C548.289 350.645 551.758 349.002 555.11 347.008V374.692C555.11 376.502 554.49 378.05 553.25 379.337C552.01 380.623 550.521 381.268 548.785 381.271V383.306C548.785 383.884 548.594 384.368 548.213 384.756C547.832 385.144 547.362 385.339 546.803 385.342C546.276 385.342 545.863 385.125 545.565 384.691C545.265 384.254 545.031 383.792 544.864 383.306V381.267H518.356V383.302C518.356 383.88 518.166 384.363 517.785 384.752C517.406 385.142 516.936 385.338 516.375 385.338C515.847 385.338 515.433 385.121 515.133 384.686C514.835 384.249 514.604 383.788 514.44 383.302Z" fill="#FC9DA9" fill-opacity="0.09"/>
<path d="M601.249 315.197L605.838 316.493C608.763 317.323 610.222 317.738 611.212 318.776C612.202 319.815 612.545 321.29 613.226 324.244L614.299 328.887C617.359 342.105 618.887 348.712 622.838 348.961C626.791 349.202 629.556 342.854 635.079 330.167L650.238 295.333C654.576 285.371 656.745 280.387 654.31 277.833C651.876 275.279 646.782 277.195 636.6 281.026L600.998 294.415C588.031 299.293 581.544 301.736 581.589 305.688C581.635 309.641 588.173 311.488 601.249 315.197Z" fill="#FC9DA9" fill-opacity="0.09"/>
<path d="M519.849 486.012L524.492 479.901L515.122 440.662L524.922 427.763C526.222 426.052 526.814 423.914 526.568 421.82C526.322 419.725 525.259 417.846 523.612 416.594C521.965 415.343 519.869 414.822 517.785 415.146C515.701 415.471 513.8 416.614 512.501 418.325L502.443 431.563L462.127 433.052L457.744 438.821L489.472 448.635L478.199 463.472L463.982 462.843L459.082 469.293L479.509 474.64L490.135 492.887L495.036 486.437L490.62 472.909L502.099 457.801L519.849 486.012Z" fill="#FC9DA9" fill-opacity="0.09"/>
<path d="M527.318 532.341H535.903V523.417H527.318V532.341ZM531.61 554.265C527.404 554.265 523.336 553.509 519.406 551.997C515.482 550.485 511.716 548.564 508.11 546.232V538.916C508.11 537.109 508.729 535.562 509.967 534.275C511.205 532.989 512.695 532.344 514.44 532.341H523.401V522.477C523.401 521.635 523.701 520.903 524.302 520.278C524.902 519.654 525.606 519.342 526.413 519.342H536.808C537.617 519.342 538.322 519.654 538.923 520.278C539.523 520.903 539.824 521.635 539.824 522.477V532.341H548.785C550.524 532.341 552.012 532.986 553.25 534.275C554.488 535.564 555.108 537.111 555.11 538.916V546.232C551.507 548.566 547.742 550.488 543.815 551.997C539.888 553.509 535.819 554.265 531.61 554.265ZM514.44 587.302V585.267C512.698 585.267 511.208 584.622 509.971 583.333C508.733 582.044 508.113 580.498 508.11 578.696V551.012C511.466 553.004 514.934 554.646 518.517 555.938C522.099 557.224 525.811 558.009 529.652 558.291V560.371C529.652 560.949 529.84 561.434 530.216 561.825C530.592 562.216 531.058 562.41 531.614 562.407C532.17 562.404 532.635 562.21 533.009 561.825C533.382 561.439 533.569 560.955 533.569 560.371V558.291C537.41 558.009 541.121 557.223 544.704 555.934C548.289 554.645 551.758 553.002 555.11 551.008V578.692C555.11 580.502 554.49 582.05 553.25 583.337C552.01 584.623 550.521 585.268 548.785 585.271V587.306C548.785 587.884 548.594 588.368 548.213 588.756C547.832 589.144 547.362 589.339 546.803 589.342C546.276 589.342 545.863 589.125 545.565 588.691C545.265 588.254 545.031 587.792 544.864 587.306V585.267H518.356V587.302C518.356 587.88 518.166 588.363 517.785 588.752C517.406 589.142 516.936 589.338 516.375 589.338C515.847 589.338 515.433 589.121 515.133 588.686C514.835 588.249 514.604 587.788 514.44 587.302Z" fill="#FC9DA9" fill-opacity="0.09"/>
<path d="M601.249 519.197L605.838 520.493C608.763 521.323 610.222 521.738 611.212 522.776C612.202 523.815 612.545 525.29 613.226 528.244L614.299 532.887C617.359 546.105 618.887 552.712 622.838 552.961C626.791 553.202 629.556 546.854 635.079 534.167L650.238 499.333C654.576 489.371 656.745 484.387 654.31 481.833C651.876 479.279 646.782 481.195 636.6 485.026L600.998 498.415C588.031 503.293 581.544 505.736 581.589 509.688C581.635 513.641 588.173 515.488 601.249 519.197Z" fill="#FC9DA9" fill-opacity="0.09"/>
<path d="M519.849 684.012L524.492 677.901L515.122 638.662L524.922 625.763C526.222 624.052 526.814 621.914 526.568 619.82C526.322 617.725 525.259 615.846 523.612 614.594C521.965 613.343 519.869 612.822 517.785 613.146C515.701 613.471 513.8 614.614 512.501 616.325L502.443 629.563L462.127 631.052L457.744 636.821L489.472 646.635L478.199 661.472L463.982 660.843L459.082 667.293L479.509 672.64L490.135 690.887L495.036 684.437L490.62 670.909L502.099 655.801L519.849 684.012Z" fill="#FC9DA9" fill-opacity="0.09"/>
<path d="M527.318 730.341H535.903V721.417H527.318V730.341ZM531.61 752.265C527.404 752.265 523.336 751.509 519.406 749.997C515.482 748.485 511.716 746.564 508.11 744.232V736.916C508.11 735.109 508.729 733.562 509.967 732.275C511.205 730.989 512.695 730.344 514.44 730.341H523.401V720.477C523.401 719.635 523.701 718.903 524.302 718.278C524.902 717.654 525.606 717.342 526.413 717.342H536.808C537.617 717.342 538.322 717.654 538.923 718.278C539.523 718.903 539.824 719.635 539.824 720.477V730.341H548.785C550.524 730.341 552.012 730.986 553.25 732.275C554.488 733.564 555.108 735.111 555.11 736.916V744.232C551.507 746.566 547.742 748.488 543.815 749.997C539.888 751.509 535.819 752.265 531.61 752.265ZM514.44 785.302V783.267C512.698 783.267 511.208 782.622 509.971 781.333C508.733 780.044 508.113 778.498 508.11 776.696V749.012C511.466 751.004 514.934 752.646 518.517 753.938C522.099 755.224 525.811 756.009 529.652 756.291V758.371C529.652 758.949 529.84 759.434 530.216 759.825C530.592 760.216 531.058 760.41 531.614 760.407C532.17 760.404 532.635 760.21 533.009 759.825C533.382 759.439 533.569 758.955 533.569 758.371V756.291C537.41 756.009 541.121 755.223 544.704 753.934C548.289 752.645 551.758 751.002 555.11 749.008V776.692C555.11 778.502 554.49 780.05 553.25 781.337C552.01 782.623 550.521 783.268 548.785 783.271V785.306C548.785 785.884 548.594 786.368 548.213 786.756C547.832 787.144 547.362 787.339 546.803 787.342C546.276 787.342 545.863 787.125 545.565 786.691C545.265 786.254 545.031 785.792 544.864 785.306V783.267H518.356V785.302C518.356 785.88 518.166 786.363 517.785 786.752C517.406 787.142 516.936 787.338 516.375 787.338C515.847 787.338 515.433 787.121 515.133 786.686C514.835 786.249 514.604 785.788 514.44 785.302Z" fill="#FC9DA9" fill-opacity="0.09"/>
<path d="M601.249 717.197L605.838 718.493C608.763 719.323 610.222 719.738 611.212 720.776C612.202 721.815 612.545 723.29 613.226 726.244L614.299 730.887C617.359 744.105 618.887 750.712 622.838 750.961C626.791 751.202 629.556 744.854 635.079 732.167L650.238 697.333C654.576 687.371 656.745 682.387 654.31 679.833C651.876 677.279 646.782 679.195 636.6 683.026L600.998 696.415C588.031 701.293 581.544 703.736 581.589 707.688C581.635 711.641 588.173 713.488 601.249 717.197Z" fill="#FC9DA9" fill-opacity="0.09"/>
<path d="M519.849 878.012L524.492 871.901L515.122 832.662L524.922 819.763C526.222 818.052 526.814 815.914 526.568 813.82C526.322 811.725 525.259 809.846 523.612 808.594C521.965 807.343 519.869 806.822 517.785 807.146C515.701 807.471 513.8 808.614 512.501 810.325L502.443 823.563L462.127 825.052L457.744 830.821L489.472 840.635L478.199 855.472L463.982 854.843L459.082 861.293L479.509 866.64L490.135 884.887L495.036 878.437L490.62 864.909L502.099 849.801L519.849 878.012Z" fill="#FC9DA9" fill-opacity="0.09"/>
<path d="M527.318 924.341H535.903V915.417H527.318V924.341ZM531.61 946.265C527.404 946.265 523.336 945.509 519.406 943.997C515.482 942.485 511.716 940.564 508.11 938.232V930.916C508.11 929.109 508.729 927.562 509.967 926.275C511.205 924.989 512.695 924.344 514.44 924.341H523.401V914.477C523.401 913.635 523.701 912.903 524.302 912.278C524.902 911.654 525.606 911.342 526.413 911.342H536.808C537.617 911.342 538.322 911.654 538.923 912.278C539.523 912.903 539.824 913.635 539.824 914.477V924.341H548.785C550.524 924.341 552.012 924.986 553.25 926.275C554.488 927.564 555.108 929.111 555.11 930.916V938.232C551.507 940.566 547.742 942.488 543.815 943.997C539.888 945.509 535.819 946.265 531.61 946.265ZM514.44 979.302V977.267C512.698 977.267 511.208 976.622 509.971 975.333C508.733 974.044 508.113 972.498 508.11 970.696V943.012C511.466 945.004 514.934 946.646 518.517 947.938C522.099 949.224 525.811 950.009 529.652 950.291V952.371C529.652 952.949 529.84 953.434 530.216 953.825C530.592 954.216 531.058 954.41 531.614 954.407C532.17 954.404 532.635 954.21 533.009 953.825C533.382 953.439 533.569 952.955 533.569 952.371V950.291C537.41 950.009 541.121 949.223 544.704 947.934C548.289 946.645 551.758 945.002 555.11 943.008V970.692C555.11 972.502 554.49 974.05 553.25 975.337C552.01 976.623 550.521 977.268 548.785 977.271V979.306C548.785 979.884 548.594 980.368 548.213 980.756C547.832 981.144 547.362 981.339 546.803 981.342C546.276 981.342 545.863 981.125 545.565 980.691C545.265 980.254 545.031 979.792 544.864 979.306V977.267H518.356V979.302C518.356 979.88 518.166 980.363 517.785 980.752C517.406 981.142 516.936 981.338 516.375 981.338C515.847 981.338 515.433 981.121 515.133 980.686C514.835 980.249 514.604 979.788 514.44 979.302Z" fill="#FC9DA9" fill-opacity="0.09"/>
<path d="M601.249 911.197L605.838 912.493C608.763 913.323 610.222 913.738 611.212 914.776C612.202 915.815 612.545 917.29 613.226 920.244L614.299 924.887C617.359 938.105 618.887 944.712 622.838 944.961C626.791 945.202 629.556 938.854 635.079 926.167L650.238 891.333C654.576 881.371 656.745 876.387 654.31 873.833C651.876 871.279 646.782 873.195 636.6 877.026L600.998 890.415C588.031 895.293 581.544 897.736 581.589 901.688C581.635 905.641 588.173 907.488 601.249 911.197Z" fill="#FC9DA9" fill-opacity="0.09"/>
<path d="M963.849 80.0124L968.492 73.9014L959.122 34.6616L968.922 21.7625C970.222 20.052 970.814 17.9143 970.568 15.8199C970.322 13.7254 969.259 11.8456 967.612 10.5941C965.965 9.3426 963.869 8.82186 961.785 9.14644C959.701 9.47101 957.8 10.6143 956.501 12.3249L946.443 25.5626L906.127 27.0518L901.744 32.8209L933.472 42.6346L922.199 57.4718L907.982 56.8432L903.082 63.2927L923.509 68.6402L934.135 86.8868L939.036 80.4373L934.62 66.9095L946.099 51.8014L963.849 80.0124Z" fill="#FC9DA9" fill-opacity="0.09"/>
<path d="M971.318 126.341H979.903V117.417H971.318V126.341ZM975.61 148.265C971.404 148.265 967.336 147.509 963.406 145.997C959.482 144.485 955.716 142.564 952.11 140.232V132.916C952.11 131.109 952.729 129.562 953.967 128.275C955.205 126.989 956.695 126.344 958.44 126.341H967.401V116.477C967.401 115.635 967.701 114.903 968.302 114.278C968.902 113.654 969.606 113.342 970.413 113.342H980.808C981.617 113.342 982.322 113.654 982.923 114.278C983.523 114.903 983.824 115.635 983.824 116.477V126.341H992.785C994.524 126.341 996.012 126.986 997.25 128.275C998.488 129.564 999.108 131.111 999.11 132.916V140.232C995.507 142.566 991.742 144.488 987.815 145.997C983.888 147.509 979.819 148.265 975.61 148.265ZM958.44 181.302V179.267C956.698 179.267 955.208 178.622 953.971 177.333C952.733 176.044 952.113 174.498 952.11 172.696V145.012C955.466 147.004 958.934 148.646 962.517 149.938C966.099 151.224 969.811 152.009 973.652 152.291V154.371C973.652 154.949 973.84 155.434 974.216 155.825C974.592 156.216 975.058 156.41 975.614 156.407C976.17 156.404 976.635 156.21 977.009 155.825C977.382 155.439 977.569 154.955 977.569 154.371V152.291C981.41 152.009 985.121 151.223 988.704 149.934C992.289 148.645 995.758 147.002 999.11 145.008V172.692C999.11 174.502 998.49 176.05 997.25 177.337C996.01 178.623 994.521 179.268 992.785 179.271V181.306C992.785 181.884 992.594 182.368 992.213 182.756C991.832 183.144 991.362 183.339 990.803 183.342C990.276 183.342 989.863 183.125 989.565 182.691C989.265 182.254 989.031 181.792 988.864 181.306V179.267H962.356V181.302C962.356 181.88 962.166 182.363 961.785 182.752C961.406 183.142 960.936 183.338 960.375 183.338C959.847 183.338 959.433 183.121 959.133 182.686C958.835 182.249 958.604 181.788 958.44 181.302Z" fill="#FC9DA9" fill-opacity="0.09"/>
<path d="M1045.25 113.197L1049.84 114.493C1052.76 115.323 1054.22 115.738 1055.21 116.776C1056.2 117.815 1056.54 119.29 1057.23 122.244L1058.3 126.887C1061.36 140.105 1062.89 146.712 1066.84 146.961C1070.79 147.202 1073.56 140.854 1079.08 128.167L1094.24 93.3328C1098.58 83.3714 1100.74 78.3868 1098.31 75.8331C1095.88 73.2794 1090.78 75.1949 1080.6 79.0258L1045 92.4152C1032.03 97.2931 1025.54 99.7358 1025.59 103.688C1025.63 107.641 1032.17 109.488 1045.25 113.197Z" fill="#FC9DA9" fill-opacity="0.09"/>
<path d="M963.849 282.012L968.492 275.901L959.122 236.662L968.922 223.763C970.222 222.052 970.814 219.914 970.568 217.82C970.322 215.725 969.259 213.846 967.612 212.594C965.965 211.343 963.869 210.822 961.785 211.146C959.701 211.471 957.8 212.614 956.501 214.325L946.443 227.563L906.127 229.052L901.744 234.821L933.472 244.635L922.199 259.472L907.982 258.843L903.082 265.293L923.509 270.64L934.135 288.887L939.036 282.437L934.62 268.909L946.099 253.801L963.849 282.012Z" fill="#FC9DA9" fill-opacity="0.09"/>
<path d="M971.318 328.341H979.903V319.417H971.318V328.341ZM975.61 350.265C971.404 350.265 967.336 349.509 963.406 347.997C959.482 346.485 955.716 344.564 952.11 342.232V334.916C952.11 333.109 952.729 331.562 953.967 330.275C955.205 328.989 956.695 328.344 958.44 328.341H967.401V318.477C967.401 317.635 967.701 316.903 968.302 316.278C968.902 315.654 969.606 315.342 970.413 315.342H980.808C981.617 315.342 982.322 315.654 982.923 316.278C983.523 316.903 983.824 317.635 983.824 318.477V328.341H992.785C994.524 328.341 996.012 328.986 997.25 330.275C998.488 331.564 999.108 333.111 999.11 334.916V342.232C995.507 344.566 991.742 346.488 987.815 347.997C983.888 349.509 979.819 350.265 975.61 350.265ZM958.44 383.302V381.267C956.698 381.267 955.208 380.622 953.971 379.333C952.733 378.044 952.113 376.498 952.11 374.696V347.012C955.466 349.004 958.934 350.646 962.517 351.938C966.099 353.224 969.811 354.009 973.652 354.291V356.371C973.652 356.949 973.84 357.434 974.216 357.825C974.592 358.216 975.058 358.41 975.614 358.407C976.17 358.404 976.635 358.21 977.009 357.825C977.382 357.439 977.569 356.955 977.569 356.371V354.291C981.41 354.009 985.121 353.223 988.704 351.934C992.289 350.645 995.758 349.002 999.11 347.008V374.692C999.11 376.502 998.49 378.05 997.25 379.337C996.01 380.623 994.521 381.268 992.785 381.271V383.306C992.785 383.884 992.594 384.368 992.213 384.756C991.832 385.144 991.362 385.339 990.803 385.342C990.276 385.342 989.863 385.125 989.565 384.691C989.265 384.254 989.031 383.792 988.864 383.306V381.267H962.356V383.302C962.356 383.88 962.166 384.363 961.785 384.752C961.406 385.142 960.936 385.338 960.375 385.338C959.847 385.338 959.433 385.121 959.133 384.686C958.835 384.249 958.604 383.788 958.44 383.302Z" fill="#FC9DA9" fill-opacity="0.09"/>
<path d="M1045.25 315.197L1049.84 316.493C1052.76 317.323 1054.22 317.738 1055.21 318.776C1056.2 319.815 1056.54 321.29 1057.23 324.244L1058.3 328.887C1061.36 342.105 1062.89 348.712 1066.84 348.961C1070.79 349.202 1073.56 342.854 1079.08 330.167L1094.24 295.333C1098.58 285.371 1100.74 280.387 1098.31 277.833C1095.88 275.279 1090.78 277.195 1080.6 281.026L1045 294.415C1032.03 299.293 1025.54 301.736 1025.59 305.688C1025.63 309.641 1032.17 311.488 1045.25 315.197Z" fill="#FC9DA9" fill-opacity="0.09"/>
<path d="M963.849 486.012L968.492 479.901L959.122 440.662L968.922 427.763C970.222 426.052 970.814 423.914 970.568 421.82C970.322 419.725 969.259 417.846 967.612 416.594C965.965 415.343 963.869 414.822 961.785 415.146C959.701 415.471 957.8 416.614 956.501 418.325L946.443 431.563L906.127 433.052L901.744 438.821L933.472 448.635L922.199 463.472L907.982 462.843L903.082 469.293L923.509 474.64L934.135 492.887L939.036 486.437L934.62 472.909L946.099 457.801L963.849 486.012Z" fill="#FC9DA9" fill-opacity="0.09"/>
<path d="M971.318 532.341H979.903V523.417H971.318V532.341ZM975.61 554.265C971.404 554.265 967.336 553.509 963.406 551.997C959.482 550.485 955.716 548.564 952.11 546.232V538.916C952.11 537.109 952.729 535.562 953.967 534.275C955.205 532.989 956.695 532.344 958.44 532.341H967.401V522.477C967.401 521.635 967.701 520.903 968.302 520.278C968.902 519.654 969.606 519.342 970.413 519.342H980.808C981.617 519.342 982.322 519.654 982.923 520.278C983.523 520.903 983.824 521.635 983.824 522.477V532.341H992.785C994.524 532.341 996.012 532.986 997.25 534.275C998.488 535.564 999.108 537.111 999.11 538.916V546.232C995.507 548.566 991.742 550.488 987.815 551.997C983.888 553.509 979.819 554.265 975.61 554.265ZM958.44 587.302V585.267C956.698 585.267 955.208 584.622 953.971 583.333C952.733 582.044 952.113 580.498 952.11 578.696V551.012C955.466 553.004 958.934 554.646 962.517 555.938C966.099 557.224 969.811 558.009 973.652 558.291V560.371C973.652 560.949 973.84 561.434 974.216 561.825C974.592 562.216 975.058 562.41 975.614 562.407C976.17 562.404 976.635 562.21 977.009 561.825C977.382 561.439 977.569 560.955 977.569 560.371V558.291C981.41 558.009 985.121 557.223 988.704 555.934C992.289 554.645 995.758 553.002 999.11 551.008V578.692C999.11 580.502 998.49 582.05 997.25 583.337C996.01 584.623 994.521 585.268 992.785 585.271V587.306C992.785 587.884 992.594 588.368 992.213 588.756C991.832 589.144 991.362 589.339 990.803 589.342C990.276 589.342 989.863 589.125 989.565 588.691C989.265 588.254 989.031 587.792 988.864 587.306V585.267H962.356V587.302C962.356 587.88 962.166 588.363 961.785 588.752C961.406 589.142 960.936 589.338 960.375 589.338C959.847 589.338 959.433 589.121 959.133 588.686C958.835 588.249 958.604 587.788 958.44 587.302Z" fill="#FC9DA9" fill-opacity="0.09"/>
<path d="M1045.25 519.197L1049.84 520.493C1052.76 521.323 1054.22 521.738 1055.21 522.776C1056.2 523.815 1056.54 525.29 1057.23 528.244L1058.3 532.887C1061.36 546.105 1062.89 552.712 1066.84 552.961C1070.79 553.202 1073.56 546.854 1079.08 534.167L1094.24 499.333C1098.58 489.371 1100.74 484.387 1098.31 481.833C1095.88 479.279 1090.78 481.195 1080.6 485.026L1045 498.415C1032.03 503.293 1025.54 505.736 1025.59 509.688C1025.63 513.641 1032.17 515.488 1045.25 519.197Z" fill="#FC9DA9" fill-opacity="0.09"/>
<path d="M963.849 684.012L968.492 677.901L959.122 638.662L968.922 625.763C970.222 624.052 970.814 621.914 970.568 619.82C970.322 617.725 969.259 615.846 967.612 614.594C965.965 613.343 963.869 612.822 961.785 613.146C959.701 613.471 957.8 614.614 956.501 616.325L946.443 629.563L906.127 631.052L901.744 636.821L933.472 646.635L922.199 661.472L907.982 660.843L903.082 667.293L923.509 672.64L934.135 690.887L939.036 684.437L934.62 670.909L946.099 655.801L963.849 684.012Z" fill="#FC9DA9" fill-opacity="0.09"/>
<path d="M971.318 730.341H979.903V721.417H971.318V730.341ZM975.61 752.265C971.404 752.265 967.336 751.509 963.406 749.997C959.482 748.485 955.716 746.564 952.11 744.232V736.916C952.11 735.109 952.729 733.562 953.967 732.275C955.205 730.989 956.695 730.344 958.44 730.341H967.401V720.477C967.401 719.635 967.701 718.903 968.302 718.278C968.902 717.654 969.606 717.342 970.413 717.342H980.808C981.617 717.342 982.322 717.654 982.923 718.278C983.523 718.903 983.824 719.635 983.824 720.477V730.341H992.785C994.524 730.341 996.012 730.986 997.25 732.275C998.488 733.564 999.108 735.111 999.11 736.916V744.232C995.507 746.566 991.742 748.488 987.815 749.997C983.888 751.509 979.819 752.265 975.61 752.265ZM958.44 785.302V783.267C956.698 783.267 955.208 782.622 953.971 781.333C952.733 780.044 952.113 778.498 952.11 776.696V749.012C955.466 751.004 958.934 752.646 962.517 753.938C966.099 755.224 969.811 756.009 973.652 756.291V758.371C973.652 758.949 973.84 759.434 974.216 759.825C974.592 760.216 975.058 760.41 975.614 760.407C976.17 760.404 976.635 760.21 977.009 759.825C977.382 759.439 977.569 758.955 977.569 758.371V756.291C981.41 756.009 985.121 755.223 988.704 753.934C992.289 752.645 995.758 751.002 999.11 749.008V776.692C999.11 778.502 998.49 780.05 997.25 781.337C996.01 782.623 994.521 783.268 992.785 783.271V785.306C992.785 785.884 992.594 786.368 992.213 786.756C991.832 787.144 991.362 787.339 990.803 787.342C990.276 787.342 989.863 787.125 989.565 786.691C989.265 786.254 989.031 785.792 988.864 785.306V783.267H962.356V785.302C962.356 785.88 962.166 786.363 961.785 786.752C961.406 787.142 960.936 787.338 960.375 787.338C959.847 787.338 959.433 787.121 959.133 786.686C958.835 786.249 958.604 785.788 958.44 785.302Z" fill="#FC9DA9" fill-opacity="0.09"/>
<path d="M1045.25 717.197L1049.84 718.493C1052.76 719.323 1054.22 719.738 1055.21 720.776C1056.2 721.815 1056.54 723.29 1057.23 726.244L1058.3 730.887C1061.36 744.105 1062.89 750.712 1066.84 750.961C1070.79 751.202 1073.56 744.854 1079.08 732.167L1094.24 697.333C1098.58 687.371 1100.74 682.387 1098.31 679.833C1095.88 677.279 1090.78 679.195 1080.6 683.026L1045 696.415C1032.03 701.293 1025.54 703.736 1025.59 707.688C1025.63 711.641 1032.17 713.488 1045.25 717.197Z" fill="#FC9DA9" fill-opacity="0.09"/>
<path d="M963.849 878.012L968.492 871.901L959.122 832.662L968.922 819.763C970.222 818.052 970.814 815.914 970.568 813.82C970.322 811.725 969.259 809.846 967.612 808.594C965.965 807.343 963.869 806.822 961.785 807.146C959.701 807.471 957.8 808.614 956.501 810.325L946.443 823.563L906.127 825.052L901.744 830.821L933.472 840.635L922.199 855.472L907.982 854.843L903.082 861.293L923.509 866.64L934.135 884.887L939.036 878.437L934.62 864.909L946.099 849.801L963.849 878.012Z" fill="#FC9DA9" fill-opacity="0.09"/>
<path d="M971.318 924.341H979.903V915.417H971.318V924.341ZM975.61 946.265C971.404 946.265 967.336 945.509 963.406 943.997C959.482 942.485 955.716 940.564 952.11 938.232V930.916C952.11 929.109 952.729 927.562 953.967 926.275C955.205 924.989 956.695 924.344 958.44 924.341H967.401V914.477C967.401 913.635 967.701 912.903 968.302 912.278C968.902 911.654 969.606 911.342 970.413 911.342H980.808C981.617 911.342 982.322 911.654 982.923 912.278C983.523 912.903 983.824 913.635 983.824 914.477V924.341H992.785C994.524 924.341 996.012 924.986 997.25 926.275C998.488 927.564 999.108 929.111 999.11 930.916V938.232C995.507 940.566 991.742 942.488 987.815 943.997C983.888 945.509 979.819 946.265 975.61 946.265ZM958.44 979.302V977.267C956.698 977.267 955.208 976.622 953.971 975.333C952.733 974.044 952.113 972.498 952.11 970.696V943.012C955.466 945.004 958.934 946.646 962.517 947.938C966.099 949.224 969.811 950.009 973.652 950.291V952.371C973.652 952.949 973.84 953.434 974.216 953.825C974.592 954.216 975.058 954.41 975.614 954.407C976.17 954.404 976.635 954.21 977.009 953.825C977.382 953.439 977.569 952.955 977.569 952.371V950.291C981.41 950.009 985.121 949.223 988.704 947.934C992.289 946.645 995.758 945.002 999.11 943.008V970.692C999.11 972.502 998.49 974.05 997.25 975.337C996.01 976.623 994.521 977.268 992.785 977.271V979.306C992.785 979.884 992.594 980.368 992.213 980.756C991.832 981.144 991.362 981.339 990.803 981.342C990.276 981.342 989.863 981.125 989.565 980.691C989.265 980.254 989.031 979.792 988.864 979.306V977.267H962.356V979.302C962.356 979.88 962.166 980.363 961.785 980.752C961.406 981.142 960.936 981.338 960.375 981.338C959.847 981.338 959.433 981.121 959.133 980.686C958.835 980.249 958.604 979.788 958.44 979.302Z" fill="#FC9DA9" fill-opacity="0.09"/>
<path d="M1045.25 911.197L1049.84 912.493C1052.76 913.323 1054.22 913.738 1055.21 914.776C1056.2 915.815 1056.54 917.29 1057.23 920.244L1058.3 924.887C1061.36 938.105 1062.89 944.712 1066.84 944.961C1070.79 945.202 1073.56 938.854 1079.08 926.167L1094.24 891.333C1098.58 881.371 1100.74 876.387 1098.31 873.833C1095.88 871.279 1090.78 873.195 1080.6 877.026L1045 890.415C1032.03 895.293 1025.54 897.736 1025.59 901.688C1025.63 905.641 1032.17 907.488 1045.25 911.197Z" fill="#FC9DA9" fill-opacity="0.09"/>
<path d="M287.849 80.3543L292.492 74.2433L283.122 35.0036L292.922 22.1044C294.222 20.3939 294.814 18.2563 294.568 16.1618C294.322 14.0673 293.259 12.1875 291.612 10.936C289.965 9.68452 287.869 9.16378 285.785 9.48836C283.701 9.81293 281.8 10.9562 280.501 12.6668L270.443 25.9045L230.127 27.3937L225.744 33.1629L257.472 42.9765L246.199 57.8137L231.982 57.1851L227.082 63.6346L247.509 68.9821L258.135 87.2288L263.036 80.7792L258.62 67.2514L270.099 52.1433L287.849 80.3543Z" fill="#FC9DA9" fill-opacity="0.09"/>
<path d="M295.318 126.683H303.903V117.759H295.318V126.683ZM299.61 148.606C295.404 148.606 291.336 147.851 287.406 146.339C283.482 144.827 279.716 142.905 276.11 140.574V133.258C276.11 131.45 276.729 129.903 277.967 128.617C279.205 127.33 280.695 126.686 282.44 126.683H291.401V116.819C291.401 115.977 291.701 115.244 292.302 114.62C292.902 113.996 293.606 113.684 294.413 113.684H304.808C305.617 113.684 306.322 113.996 306.923 114.62C307.523 115.244 307.824 115.977 307.824 116.819V126.683H316.785C318.524 126.683 320.012 127.328 321.25 128.617C322.488 129.906 323.108 131.453 323.11 133.258V140.574C319.507 142.908 315.742 144.83 311.815 146.339C307.888 147.851 303.819 148.606 299.61 148.606ZM282.44 181.644V179.609C280.698 179.609 279.208 178.964 277.971 177.675C276.733 176.386 276.113 174.84 276.11 173.038V145.354C279.466 147.346 282.934 148.988 286.517 150.28C290.099 151.566 293.811 152.351 297.652 152.633V154.713C297.652 155.291 297.84 155.776 298.216 156.167C298.592 156.558 299.058 156.752 299.614 156.749C300.17 156.746 300.635 156.552 301.009 156.167C301.382 155.781 301.569 155.297 301.569 154.713V152.633C305.41 152.351 309.121 151.565 312.704 150.276C316.289 148.986 319.758 147.344 323.11 145.35V173.034C323.11 174.844 322.49 176.392 321.25 177.679C320.01 178.965 318.521 179.61 316.785 179.613V181.648C316.785 182.226 316.594 182.709 316.213 183.098C315.832 183.486 315.362 183.681 314.803 183.684C314.276 183.684 313.863 183.467 313.565 183.032C313.265 182.595 313.031 182.134 312.864 181.648V179.609H286.356V181.644C286.356 182.222 286.166 182.705 285.785 183.094C285.406 183.484 284.936 183.68 284.375 183.68C283.847 183.68 283.433 183.463 283.133 183.028C282.835 182.591 282.604 182.13 282.44 181.644Z" fill="#FC9DA9" fill-opacity="0.09"/>
<path d="M369.249 113.539L373.838 114.835C376.763 115.665 378.222 116.08 379.212 117.118C380.202 118.157 380.545 119.632 381.226 122.586L382.299 127.229C385.359 140.447 386.887 147.054 390.838 147.303C394.791 147.544 397.556 141.196 403.079 128.509L418.238 93.6747C422.576 83.7133 424.745 78.7287 422.31 76.175C419.876 73.6213 414.782 75.5368 404.6 79.3678L368.998 92.7571C356.031 97.635 349.544 100.078 349.589 104.03C349.635 107.983 356.173 109.83 369.249 113.539Z" fill="#FC9DA9" fill-opacity="0.09"/>
<path d="M287.849 282.354L292.492 276.243L283.122 237.004L292.922 224.104C294.222 222.394 294.814 220.256 294.568 218.162C294.322 216.067 293.259 214.188 291.612 212.936C289.965 211.685 287.869 211.164 285.785 211.488C283.701 211.813 281.8 212.956 280.501 214.667L270.443 227.905L230.127 229.394L225.744 235.163L257.472 244.977L246.199 259.814L231.982 259.185L227.082 265.635L247.509 270.982L258.135 289.229L263.036 282.779L258.62 269.251L270.099 254.143L287.849 282.354Z" fill="#FC9DA9" fill-opacity="0.09"/>
<path d="M295.318 328.683H303.903V319.759H295.318V328.683ZM299.61 350.606C295.404 350.606 291.336 349.851 287.406 348.339C283.482 346.827 279.716 344.905 276.11 342.574V335.258C276.11 333.45 276.729 331.903 277.967 330.617C279.205 329.33 280.695 328.686 282.44 328.683H291.401V318.819C291.401 317.977 291.701 317.244 292.302 316.62C292.902 315.996 293.606 315.684 294.413 315.684H304.808C305.617 315.684 306.322 315.996 306.923 316.62C307.523 317.244 307.824 317.977 307.824 318.819V328.683H316.785C318.524 328.683 320.012 329.328 321.25 330.617C322.488 331.906 323.108 333.453 323.11 335.258V342.574C319.507 344.908 315.742 346.83 311.815 348.339C307.888 349.851 303.819 350.606 299.61 350.606ZM282.44 383.644V381.609C280.698 381.609 279.208 380.964 277.971 379.675C276.733 378.386 276.113 376.84 276.11 375.038V347.354C279.466 349.346 282.934 350.988 286.517 352.28C290.099 353.566 293.811 354.351 297.652 354.633V356.713C297.652 357.291 297.84 357.776 298.216 358.167C298.592 358.558 299.058 358.752 299.614 358.749C300.17 358.746 300.635 358.552 301.009 358.167C301.382 357.781 301.569 357.297 301.569 356.713V354.633C305.41 354.351 309.121 353.565 312.704 352.276C316.289 350.986 319.758 349.344 323.11 347.35V375.034C323.11 376.844 322.49 378.392 321.25 379.679C320.01 380.965 318.521 381.61 316.785 381.613V383.648C316.785 384.226 316.594 384.709 316.213 385.098C315.832 385.486 315.362 385.681 314.803 385.684C314.276 385.684 313.863 385.467 313.565 385.032C313.265 384.595 313.031 384.134 312.864 383.648V381.609H286.356V383.644C286.356 384.222 286.166 384.705 285.785 385.094C285.406 385.484 284.936 385.68 284.375 385.68C283.847 385.68 283.433 385.463 283.133 385.028C282.835 384.591 282.604 384.13 282.44 383.644Z" fill="#FC9DA9" fill-opacity="0.09"/>
<path d="M369.249 315.539L373.838 316.835C376.763 317.665 378.222 318.08 379.212 319.118C380.202 320.157 380.545 321.632 381.226 324.586L382.299 329.229C385.359 342.447 386.887 349.054 390.838 349.303C394.791 349.544 397.556 343.196 403.079 330.509L418.238 295.675C422.576 285.713 424.745 280.729 422.31 278.175C419.876 275.621 414.782 277.537 404.6 281.368L368.998 294.757C356.031 299.635 349.544 302.078 349.589 306.03C349.635 309.983 356.173 311.83 369.249 315.539Z" fill="#FC9DA9" fill-opacity="0.09"/>
<path d="M287.849 486.354L292.492 480.243L283.122 441.004L292.922 428.104C294.222 426.394 294.814 424.256 294.568 422.162C294.322 420.067 293.259 418.188 291.612 416.936C289.965 415.685 287.869 415.164 285.785 415.488C283.701 415.813 281.8 416.956 280.501 418.667L270.443 431.905L230.127 433.394L225.744 439.163L257.472 448.977L246.199 463.814L231.982 463.185L227.082 469.635L247.509 474.982L258.135 493.229L263.036 486.779L258.62 473.251L270.099 458.143L287.849 486.354Z" fill="#FC9DA9" fill-opacity="0.09"/>
<path d="M295.318 532.683H303.903V523.759H295.318V532.683ZM299.61 554.606C295.404 554.606 291.336 553.851 287.406 552.339C283.482 550.827 279.716 548.905 276.11 546.574V539.258C276.11 537.45 276.729 535.903 277.967 534.617C279.205 533.33 280.695 532.686 282.44 532.683H291.401V522.819C291.401 521.977 291.701 521.244 292.302 520.62C292.902 519.996 293.606 519.684 294.413 519.684H304.808C305.617 519.684 306.322 519.996 306.923 520.62C307.523 521.244 307.824 521.977 307.824 522.819V532.683H316.785C318.524 532.683 320.012 533.328 321.25 534.617C322.488 535.906 323.108 537.453 323.11 539.258V546.574C319.507 548.908 315.742 550.83 311.815 552.339C307.888 553.851 303.819 554.606 299.61 554.606ZM282.44 587.644V585.609C280.698 585.609 279.208 584.964 277.971 583.675C276.733 582.386 276.113 580.84 276.11 579.038V551.354C279.466 553.346 282.934 554.988 286.517 556.28C290.099 557.566 293.811 558.351 297.652 558.633V560.713C297.652 561.291 297.84 561.776 298.216 562.167C298.592 562.558 299.058 562.752 299.614 562.749C300.17 562.746 300.635 562.552 301.009 562.167C301.382 561.781 301.569 561.297 301.569 560.713V558.633C305.41 558.351 309.121 557.565 312.704 556.276C316.289 554.986 319.758 553.344 323.11 551.35V579.034C323.11 580.844 322.49 582.392 321.25 583.679C320.01 584.965 318.521 585.61 316.785 585.613V587.648C316.785 588.226 316.594 588.709 316.213 589.098C315.832 589.486 315.362 589.681 314.803 589.684C314.276 589.684 313.863 589.467 313.565 589.032C313.265 588.595 313.031 588.134 312.864 587.648V585.609H286.356V587.644C286.356 588.222 286.166 588.705 285.785 589.094C285.406 589.484 284.936 589.68 284.375 589.68C283.847 589.68 283.433 589.463 283.133 589.028C282.835 588.591 282.604 588.13 282.44 587.644Z" fill="#FC9DA9" fill-opacity="0.09"/>
<path d="M369.249 519.539L373.838 520.835C376.763 521.665 378.222 522.08 379.212 523.118C380.202 524.157 380.545 525.632 381.226 528.586L382.299 533.229C385.359 546.447 386.887 553.054 390.838 553.303C394.791 553.544 397.556 547.196 403.079 534.509L418.238 499.675C422.576 489.713 424.745 484.729 422.31 482.175C419.876 479.621 414.782 481.537 404.6 485.368L368.998 498.757C356.031 503.635 349.544 506.078 349.589 510.03C349.635 513.983 356.173 515.83 369.249 519.539Z" fill="#FC9DA9" fill-opacity="0.09"/>
<path d="M287.849 684.354L292.492 678.243L283.122 639.004L292.922 626.104C294.222 624.394 294.814 622.256 294.568 620.162C294.322 618.067 293.259 616.188 291.612 614.936C289.965 613.685 287.869 613.164 285.785 613.488C283.701 613.813 281.8 614.956 280.501 616.667L270.443 629.905L230.127 631.394L225.744 637.163L257.472 646.977L246.199 661.814L231.982 661.185L227.082 667.635L247.509 672.982L258.135 691.229L263.036 684.779L258.62 671.251L270.099 656.143L287.849 684.354Z" fill="#FC9DA9" fill-opacity="0.09"/>
<path d="M295.318 730.683H303.903V721.759H295.318V730.683ZM299.61 752.606C295.404 752.606 291.336 751.851 287.406 750.339C283.482 748.827 279.716 746.905 276.11 744.574V737.258C276.11 735.45 276.729 733.903 277.967 732.617C279.205 731.33 280.695 730.686 282.44 730.683H291.401V720.819C291.401 719.977 291.701 719.244 292.302 718.62C292.902 717.996 293.606 717.684 294.413 717.684H304.808C305.617 717.684 306.322 717.996 306.923 718.62C307.523 719.244 307.824 719.977 307.824 720.819V730.683H316.785C318.524 730.683 320.012 731.328 321.25 732.617C322.488 733.906 323.108 735.453 323.11 737.258V744.574C319.507 746.908 315.742 748.83 311.815 750.339C307.888 751.851 303.819 752.606 299.61 752.606ZM282.44 785.644V783.609C280.698 783.609 279.208 782.964 277.971 781.675C276.733 780.386 276.113 778.84 276.11 777.038V749.354C279.466 751.346 282.934 752.988 286.517 754.28C290.099 755.566 293.811 756.351 297.652 756.633V758.713C297.652 759.291 297.84 759.776 298.216 760.167C298.592 760.558 299.058 760.752 299.614 760.749C300.17 760.746 300.635 760.552 301.009 760.167C301.382 759.781 301.569 759.297 301.569 758.713V756.633C305.41 756.351 309.121 755.565 312.704 754.276C316.289 752.986 319.758 751.344 323.11 749.35V777.034C323.11 778.844 322.49 780.392 321.25 781.679C320.01 782.965 318.521 783.61 316.785 783.613V785.648C316.785 786.226 316.594 786.709 316.213 787.098C315.832 787.486 315.362 787.681 314.803 787.684C314.276 787.684 313.863 787.467 313.565 787.032C313.265 786.595 313.031 786.134 312.864 785.648V783.609H286.356V785.644C286.356 786.222 286.166 786.705 285.785 787.094C285.406 787.484 284.936 787.68 284.375 787.68C283.847 787.68 283.433 787.463 283.133 787.028C282.835 786.591 282.604 786.13 282.44 785.644Z" fill="#FC9DA9" fill-opacity="0.09"/>
<path d="M369.249 717.539L373.838 718.835C376.763 719.665 378.222 720.08 379.212 721.118C380.202 722.157 380.545 723.632 381.226 726.586L382.299 731.229C385.359 744.447 386.887 751.054 390.838 751.303C394.791 751.544 397.556 745.196 403.079 732.509L418.238 697.675C422.576 687.713 424.745 682.729 422.31 680.175C419.876 677.621 414.782 679.537 404.6 683.368L368.998 696.757C356.031 701.635 349.544 704.078 349.589 708.03C349.635 711.983 356.173 713.83 369.249 717.539Z" fill="#FC9DA9" fill-opacity="0.09"/>
<path d="M287.849 878.354L292.492 872.243L283.122 833.004L292.922 820.104C294.222 818.394 294.814 816.256 294.568 814.162C294.322 812.067 293.259 810.188 291.612 808.936C289.965 807.685 287.869 807.164 285.785 807.488C283.701 807.813 281.8 808.956 280.501 810.667L270.443 823.905L230.127 825.394L225.744 831.163L257.472 840.977L246.199 855.814L231.982 855.185L227.082 861.635L247.509 866.982L258.135 885.229L263.036 878.779L258.62 865.251L270.099 850.143L287.849 878.354Z" fill="#FC9DA9" fill-opacity="0.09"/>
<path d="M295.318 924.683H303.903V915.759H295.318V924.683ZM299.61 946.606C295.404 946.606 291.336 945.851 287.406 944.339C283.482 942.827 279.716 940.905 276.11 938.574V931.258C276.11 929.45 276.729 927.903 277.967 926.617C279.205 925.33 280.695 924.686 282.44 924.683H291.401V914.819C291.401 913.977 291.701 913.244 292.302 912.62C292.902 911.996 293.606 911.684 294.413 911.684H304.808C305.617 911.684 306.322 911.996 306.923 912.62C307.523 913.244 307.824 913.977 307.824 914.819V924.683H316.785C318.524 924.683 320.012 925.328 321.25 926.617C322.488 927.906 323.108 929.453 323.11 931.258V938.574C319.507 940.908 315.742 942.83 311.815 944.339C307.888 945.851 303.819 946.606 299.61 946.606ZM282.44 979.644V977.609C280.698 977.609 279.208 976.964 277.971 975.675C276.733 974.386 276.113 972.84 276.11 971.038V943.354C279.466 945.346 282.934 946.988 286.517 948.28C290.099 949.566 293.811 950.351 297.652 950.633V952.713C297.652 953.291 297.84 953.776 298.216 954.167C298.592 954.558 299.058 954.752 299.614 954.749C300.17 954.746 300.635 954.552 301.009 954.167C301.382 953.781 301.569 953.297 301.569 952.713V950.633C305.41 950.351 309.121 949.565 312.704 948.276C316.289 946.986 319.758 945.344 323.11 943.35V971.034C323.11 972.844 322.49 974.392 321.25 975.679C320.01 976.965 318.521 977.61 316.785 977.613V979.648C316.785 980.226 316.594 980.709 316.213 981.098C315.832 981.486 315.362 981.681 314.803 981.684C314.276 981.684 313.863 981.467 313.565 981.032C313.265 980.595 313.031 980.134 312.864 979.648V977.609H286.356V979.644C286.356 980.222 286.166 980.705 285.785 981.094C285.406 981.484 284.936 981.68 284.375 981.68C283.847 981.68 283.433 981.463 283.133 981.028C282.835 980.591 282.604 980.13 282.44 979.644Z" fill="#FC9DA9" fill-opacity="0.09"/>
<path d="M369.249 911.539L373.838 912.835C376.763 913.665 378.222 914.08 379.212 915.118C380.202 916.157 380.545 917.632 381.226 920.586L382.299 925.229C385.359 938.447 386.887 945.054 390.838 945.303C394.791 945.544 397.556 939.196 403.079 926.509L418.238 891.675C422.576 881.713 424.745 876.729 422.31 874.175C419.876 871.621 414.782 873.537 404.6 877.368L368.998 890.757C356.031 895.635 349.544 898.078 349.589 902.03C349.635 905.983 356.173 907.83 369.249 911.539Z" fill="#FC9DA9" fill-opacity="0.09"/>
<path d="M731.404 80.3543L736.047 74.2433L726.677 35.0036L736.477 22.1044C737.777 20.3939 738.369 18.2563 738.123 16.1618C737.878 14.0673 736.814 12.1875 735.167 10.936C733.52 9.68452 731.424 9.16378 729.34 9.48836C727.256 9.81293 725.356 10.9562 724.056 12.6668L713.998 25.9045L673.683 27.3937L669.299 33.1629L701.027 42.9765L689.754 57.8137L675.537 57.1851L670.637 63.6346L691.064 68.9821L701.691 87.2288L706.591 80.7792L702.175 67.2514L713.654 52.1433L731.404 80.3543Z" fill="#FC9DA9" fill-opacity="0.09"/>
<path d="M738.873 126.683H747.458V117.759H738.873V126.683ZM743.166 148.606C738.959 148.606 734.891 147.851 730.961 146.339C727.037 144.827 723.271 142.905 719.666 140.574V133.258C719.666 131.45 720.284 129.903 721.522 128.617C722.76 127.33 724.251 126.686 725.995 126.683H734.956V116.819C734.956 115.977 735.256 115.244 735.857 114.62C736.458 113.996 737.161 113.684 737.968 113.684H748.363C749.172 113.684 749.877 113.996 750.478 114.62C751.078 115.244 751.379 115.977 751.379 116.819V126.683H760.34C762.079 126.683 763.567 127.328 764.805 128.617C766.043 129.906 766.663 131.453 766.666 133.258V140.574C763.062 142.908 759.297 144.83 755.37 146.339C751.443 147.851 747.375 148.606 743.166 148.606ZM725.995 181.644V179.609C724.253 179.609 722.764 178.964 721.526 177.675C720.288 176.386 719.668 174.84 719.666 173.038V145.354C723.021 147.346 726.49 148.988 730.072 150.28C733.655 151.566 737.366 152.351 741.207 152.633V154.713C741.207 155.291 741.395 155.776 741.771 156.167C742.147 156.558 742.613 156.752 743.169 156.749C743.726 156.746 744.19 156.552 744.564 156.167C744.937 155.781 745.124 155.297 745.124 154.713V152.633C748.965 152.351 752.677 151.565 756.259 150.276C759.844 148.986 763.313 147.344 766.666 145.35V173.034C766.666 174.844 766.045 176.392 764.805 177.679C763.565 178.965 762.077 179.61 760.34 179.613V181.648C760.34 182.226 760.15 182.709 759.768 183.098C759.387 183.486 758.917 183.681 758.358 183.684C757.831 183.684 757.418 183.467 757.121 183.032C756.82 182.595 756.587 182.134 756.42 181.648V179.609H729.912V181.644C729.912 182.222 729.721 182.705 729.34 183.094C728.961 183.484 728.491 183.68 727.93 183.68C727.402 183.68 726.988 183.463 726.688 183.028C726.39 182.591 726.159 182.13 725.995 181.644Z" fill="#FC9DA9" fill-opacity="0.09"/>
<path d="M812.805 113.539L817.393 114.835C820.318 115.665 821.777 116.08 822.767 117.118C823.757 118.157 824.1 119.632 824.781 122.586L825.855 127.229C828.914 140.447 830.442 147.054 834.394 147.303C838.346 147.544 841.111 141.196 846.634 128.509L861.794 93.6747C866.131 83.7133 868.3 78.7287 865.865 76.175C863.431 73.6213 858.337 75.5368 848.156 79.3678L812.553 92.7571C799.586 97.635 793.099 100.078 793.144 104.03C793.19 107.983 799.728 109.83 812.805 113.539Z" fill="#FC9DA9" fill-opacity="0.09"/>
<path d="M731.404 282.354L736.047 276.243L726.677 237.004L736.477 224.104C737.777 222.394 738.369 220.256 738.123 218.162C737.878 216.067 736.814 214.188 735.167 212.936C733.52 211.685 731.424 211.164 729.34 211.488C727.256 211.813 725.356 212.956 724.056 214.667L713.998 227.905L673.683 229.394L669.299 235.163L701.027 244.977L689.754 259.814L675.537 259.185L670.637 265.635L691.064 270.982L701.691 289.229L706.591 282.779L702.175 269.251L713.654 254.143L731.404 282.354Z" fill="#FC9DA9" fill-opacity="0.09"/>
<path d="M738.873 328.683H747.458V319.759H738.873V328.683ZM743.166 350.606C738.959 350.606 734.891 349.851 730.961 348.339C727.037 346.827 723.271 344.905 719.666 342.574V335.258C719.666 333.45 720.284 331.903 721.522 330.617C722.76 329.33 724.251 328.686 725.995 328.683H734.956V318.819C734.956 317.977 735.256 317.244 735.857 316.62C736.458 315.996 737.161 315.684 737.968 315.684H748.363C749.172 315.684 749.877 315.996 750.478 316.62C751.078 317.244 751.379 317.977 751.379 318.819V328.683H760.34C762.079 328.683 763.567 329.328 764.805 330.617C766.043 331.906 766.663 333.453 766.666 335.258V342.574C763.062 344.908 759.297 346.83 755.37 348.339C751.443 349.851 747.375 350.606 743.166 350.606ZM725.995 383.644V381.609C724.253 381.609 722.764 380.964 721.526 379.675C720.288 378.386 719.668 376.84 719.666 375.038V347.354C723.021 349.346 726.49 350.988 730.072 352.28C733.655 353.566 737.366 354.351 741.207 354.633V356.713C741.207 357.291 741.395 357.776 741.771 358.167C742.147 358.558 742.613 358.752 743.169 358.749C743.726 358.746 744.19 358.552 744.564 358.167C744.937 357.781 745.124 357.297 745.124 356.713V354.633C748.965 354.351 752.677 353.565 756.259 352.276C759.844 350.986 763.313 349.344 766.666 347.35V375.034C766.666 376.844 766.045 378.392 764.805 379.679C763.565 380.965 762.077 381.61 760.34 381.613V383.648C760.34 384.226 760.15 384.709 759.768 385.098C759.387 385.486 758.917 385.681 758.358 385.684C757.831 385.684 757.418 385.467 757.121 385.032C756.82 384.595 756.587 384.134 756.42 383.648V381.609H729.912V383.644C729.912 384.222 729.721 384.705 729.34 385.094C728.961 385.484 728.491 385.68 727.93 385.68C727.402 385.68 726.988 385.463 726.688 385.028C726.39 384.591 726.159 384.13 725.995 383.644Z" fill="#FC9DA9" fill-opacity="0.09"/>
<path d="M812.805 315.539L817.393 316.835C820.318 317.665 821.777 318.08 822.767 319.118C823.757 320.157 824.1 321.632 824.781 324.586L825.855 329.229C828.914 342.447 830.442 349.054 834.394 349.303C838.346 349.544 841.111 343.196 846.634 330.509L861.794 295.675C866.131 285.713 868.3 280.729 865.865 278.175C863.431 275.621 858.337 277.537 848.156 281.368L812.553 294.757C799.586 299.635 793.099 302.078 793.144 306.03C793.19 309.983 799.728 311.83 812.805 315.539Z" fill="#FC9DA9" fill-opacity="0.09"/>
<path d="M731.404 486.354L736.047 480.243L726.677 441.004L736.477 428.104C737.777 426.394 738.369 424.256 738.123 422.162C737.878 420.067 736.814 418.188 735.167 416.936C733.52 415.685 731.424 415.164 729.34 415.488C727.256 415.813 725.356 416.956 724.056 418.667L713.998 431.905L673.683 433.394L669.299 439.163L701.027 448.977L689.754 463.814L675.537 463.185L670.637 469.635L691.064 474.982L701.691 493.229L706.591 486.779L702.175 473.251L713.654 458.143L731.404 486.354Z" fill="#FC9DA9" fill-opacity="0.09"/>
<path d="M738.873 532.683H747.458V523.759H738.873V532.683ZM743.166 554.606C738.959 554.606 734.891 553.851 730.961 552.339C727.037 550.827 723.271 548.905 719.666 546.574V539.258C719.666 537.45 720.284 535.903 721.522 534.617C722.76 533.33 724.251 532.686 725.995 532.683H734.956V522.819C734.956 521.977 735.256 521.244 735.857 520.62C736.458 519.996 737.161 519.684 737.968 519.684H748.363C749.172 519.684 749.877 519.996 750.478 520.62C751.078 521.244 751.379 521.977 751.379 522.819V532.683H760.34C762.079 532.683 763.567 533.328 764.805 534.617C766.043 535.906 766.663 537.453 766.666 539.258V546.574C763.062 548.908 759.297 550.83 755.37 552.339C751.443 553.851 747.375 554.606 743.166 554.606ZM725.995 587.644V585.609C724.253 585.609 722.764 584.964 721.526 583.675C720.288 582.386 719.668 580.84 719.666 579.038V551.354C723.021 553.346 726.49 554.988 730.072 556.28C733.655 557.566 737.366 558.351 741.207 558.633V560.713C741.207 561.291 741.395 561.776 741.771 562.167C742.147 562.558 742.613 562.752 743.169 562.749C743.726 562.746 744.19 562.552 744.564 562.167C744.937 561.781 745.124 561.297 745.124 560.713V558.633C748.965 558.351 752.677 557.565 756.259 556.276C759.844 554.986 763.313 553.344 766.666 551.35V579.034C766.666 580.844 766.045 582.392 764.805 583.679C763.565 584.965 762.077 585.61 760.34 585.613V587.648C760.34 588.226 760.15 588.709 759.768 589.098C759.387 589.486 758.917 589.681 758.358 589.684C757.831 589.684 757.418 589.467 757.121 589.032C756.82 588.595 756.587 588.134 756.42 587.648V585.609H729.912V587.644C729.912 588.222 729.721 588.705 729.34 589.094C728.961 589.484 728.491 589.68 727.93 589.68C727.402 589.68 726.988 589.463 726.688 589.028C726.39 588.591 726.159 588.13 725.995 587.644Z" fill="#FC9DA9" fill-opacity="0.09"/>
<path d="M812.805 519.539L817.393 520.835C820.318 521.665 821.777 522.08 822.767 523.118C823.757 524.157 824.1 525.632 824.781 528.586L825.855 533.229C828.914 546.447 830.442 553.054 834.394 553.303C838.346 553.544 841.111 547.196 846.634 534.509L861.794 499.675C866.131 489.713 868.3 484.729 865.865 482.175C863.431 479.621 858.337 481.537 848.156 485.368L812.553 498.757C799.586 503.635 793.099 506.078 793.144 510.03C793.19 513.983 799.728 515.83 812.805 519.539Z" fill="#FC9DA9" fill-opacity="0.09"/>
<path d="M731.404 684.354L736.047 678.243L726.677 639.004L736.477 626.104C737.777 624.394 738.369 622.256 738.123 620.162C737.878 618.067 736.814 616.188 735.167 614.936C733.52 613.685 731.424 613.164 729.34 613.488C727.256 613.813 725.356 614.956 724.056 616.667L713.998 629.905L673.683 631.394L669.299 637.163L701.027 646.977L689.754 661.814L675.537 661.185L670.637 667.635L691.064 672.982L701.691 691.229L706.591 684.779L702.175 671.251L713.654 656.143L731.404 684.354Z" fill="#FC9DA9" fill-opacity="0.09"/>
<path d="M738.873 730.683H747.458V721.759H738.873V730.683ZM743.166 752.606C738.959 752.606 734.891 751.851 730.961 750.339C727.037 748.827 723.271 746.905 719.666 744.574V737.258C719.666 735.45 720.284 733.903 721.522 732.617C722.76 731.33 724.251 730.686 725.995 730.683H734.956V720.819C734.956 719.977 735.256 719.244 735.857 718.62C736.458 717.996 737.161 717.684 737.968 717.684H748.363C749.172 717.684 749.877 717.996 750.478 718.62C751.078 719.244 751.379 719.977 751.379 720.819V730.683H760.34C762.079 730.683 763.567 731.328 764.805 732.617C766.043 733.906 766.663 735.453 766.666 737.258V744.574C763.062 746.908 759.297 748.83 755.37 750.339C751.443 751.851 747.375 752.606 743.166 752.606ZM725.995 785.644V783.609C724.253 783.609 722.764 782.964 721.526 781.675C720.288 780.386 719.668 778.84 719.666 777.038V749.354C723.021 751.346 726.49 752.988 730.072 754.28C733.655 755.566 737.366 756.351 741.207 756.633V758.713C741.207 759.291 741.395 759.776 741.771 760.167C742.147 760.558 742.613 760.752 743.169 760.749C743.726 760.746 744.19 760.552 744.564 760.167C744.937 759.781 745.124 759.297 745.124 758.713V756.633C748.965 756.351 752.677 755.565 756.259 754.276C759.844 752.986 763.313 751.344 766.666 749.35V777.034C766.666 778.844 766.045 780.392 764.805 781.679C763.565 782.965 762.077 783.61 760.34 783.613V785.648C760.34 786.226 760.15 786.709 759.768 787.098C759.387 787.486 758.917 787.681 758.358 787.684C757.831 787.684 757.418 787.467 757.121 787.032C756.82 786.595 756.587 786.134 756.42 785.648V783.609H729.912V785.644C729.912 786.222 729.721 786.705 729.34 787.094C728.961 787.484 728.491 787.68 727.93 787.68C727.402 787.68 726.988 787.463 726.688 787.028C726.39 786.591 726.159 786.13 725.995 785.644Z" fill="#FC9DA9" fill-opacity="0.09"/>
<path d="M812.805 717.539L817.393 718.835C820.318 719.665 821.777 720.08 822.767 721.118C823.757 722.157 824.1 723.632 824.781 726.586L825.855 731.229C828.914 744.447 830.442 751.054 834.394 751.303C838.346 751.544 841.111 745.196 846.634 732.509L861.794 697.675C866.131 687.713 868.3 682.729 865.865 680.175C863.431 677.621 858.337 679.537 848.156 683.368L812.553 696.757C799.586 701.635 793.099 704.078 793.144 708.03C793.19 711.983 799.728 713.83 812.805 717.539Z" fill="#FC9DA9" fill-opacity="0.09"/>
<path d="M731.404 878.354L736.047 872.243L726.677 833.004L736.477 820.104C737.777 818.394 738.369 816.256 738.123 814.162C737.878 812.067 736.814 810.188 735.167 808.936C733.52 807.685 731.424 807.164 729.34 807.488C727.256 807.813 725.356 808.956 724.056 810.667L713.998 823.905L673.683 825.394L669.299 831.163L701.027 840.977L689.754 855.814L675.537 855.185L670.637 861.635L691.064 866.982L701.691 885.229L706.591 878.779L702.175 865.251L713.654 850.143L731.404 878.354Z" fill="#FC9DA9" fill-opacity="0.09"/>
<path d="M738.873 924.683H747.458V915.759H738.873V924.683ZM743.166 946.606C738.959 946.606 734.891 945.851 730.961 944.339C727.037 942.827 723.271 940.905 719.666 938.574V931.258C719.666 929.45 720.284 927.903 721.522 926.617C722.76 925.33 724.251 924.686 725.995 924.683H734.956V914.819C734.956 913.977 735.256 913.244 735.857 912.62C736.458 911.996 737.161 911.684 737.968 911.684H748.363C749.172 911.684 749.877 911.996 750.478 912.62C751.078 913.244 751.379 913.977 751.379 914.819V924.683H760.34C762.079 924.683 763.567 925.328 764.805 926.617C766.043 927.906 766.663 929.453 766.666 931.258V938.574C763.062 940.908 759.297 942.83 755.37 944.339C751.443 945.851 747.375 946.606 743.166 946.606ZM725.995 979.644V977.609C724.253 977.609 722.764 976.964 721.526 975.675C720.288 974.386 719.668 972.84 719.666 971.038V943.354C723.021 945.346 726.49 946.988 730.072 948.28C733.655 949.566 737.366 950.351 741.207 950.633V952.713C741.207 953.291 741.395 953.776 741.771 954.167C742.147 954.558 742.613 954.752 743.169 954.749C743.726 954.746 744.19 954.552 744.564 954.167C744.937 953.781 745.124 953.297 745.124 952.713V950.633C748.965 950.351 752.677 949.565 756.259 948.276C759.844 946.986 763.313 945.344 766.666 943.35V971.034C766.666 972.844 766.045 974.392 764.805 975.679C763.565 976.965 762.077 977.61 760.34 977.613V979.648C760.34 980.226 760.15 980.709 759.768 981.098C759.387 981.486 758.917 981.681 758.358 981.684C757.831 981.684 757.418 981.467 757.121 981.032C756.82 980.595 756.587 980.134 756.42 979.648V977.609H729.912V979.644C729.912 980.222 729.721 980.705 729.34 981.094C728.961 981.484 728.491 981.68 727.93 981.68C727.402 981.68 726.988 981.463 726.688 981.028C726.39 980.591 726.159 980.13 725.995 979.644Z" fill="#FC9DA9" fill-opacity="0.09"/>
<path d="M812.805 911.539L817.393 912.835C820.318 913.665 821.777 914.08 822.767 915.118C823.757 916.157 824.1 917.632 824.781 920.586L825.855 925.229C828.914 938.447 830.442 945.054 834.394 945.303C838.346 945.544 841.111 939.196 846.634 926.509L861.794 891.675C866.131 881.713 868.3 876.729 865.865 874.175C863.431 871.621 858.337 873.537 848.156 877.368L812.553 890.757C799.586 895.635 793.099 898.078 793.144 902.03C793.19 905.983 799.728 907.83 812.805 911.539Z" fill="#FC9DA9" fill-opacity="0.09"/>
<path d="M1175.4 80.3543L1180.05 74.2433L1170.68 35.0036L1180.48 22.1044C1181.78 20.3939 1182.37 18.2563 1182.12 16.1618C1181.88 14.0673 1180.81 12.1875 1179.17 10.936C1177.52 9.68452 1175.42 9.16378 1173.34 9.48836C1171.26 9.81293 1169.36 10.9562 1168.06 12.6668L1158 25.9045L1117.68 27.3937L1113.3 33.1629L1145.03 42.9765L1133.75 57.8137L1119.54 57.1851L1114.64 63.6346L1135.06 68.9821L1145.69 87.2288L1150.59 80.7792L1146.18 67.2514L1157.65 52.1433L1175.4 80.3543Z" fill="#FC9DA9" fill-opacity="0.09"/>
<path d="M1182.87 126.683H1191.46V117.759H1182.87V126.683ZM1187.17 148.606C1182.96 148.606 1178.89 147.851 1174.96 146.339C1171.04 144.827 1167.27 142.905 1163.67 140.574V133.258C1163.67 131.45 1164.28 129.903 1165.52 128.617C1166.76 127.33 1168.25 126.686 1169.99 126.683H1178.96V116.819C1178.96 115.977 1179.26 115.244 1179.86 114.62C1180.46 113.996 1181.16 113.684 1181.97 113.684H1192.36C1193.17 113.684 1193.88 113.996 1194.48 114.62C1195.08 115.244 1195.38 115.977 1195.38 116.819V126.683H1204.34C1206.08 126.683 1207.57 127.328 1208.81 128.617C1210.04 129.906 1210.66 131.453 1210.67 133.258V140.574C1207.06 142.908 1203.3 144.83 1199.37 146.339C1195.44 147.851 1191.37 148.606 1187.17 148.606ZM1169.99 181.644V179.609C1168.25 179.609 1166.76 178.964 1165.53 177.675C1164.29 176.386 1163.67 174.84 1163.67 173.038V145.354C1167.02 147.346 1170.49 148.988 1174.07 150.28C1177.65 151.566 1181.37 152.351 1185.21 152.633V154.713C1185.21 155.291 1185.4 155.776 1185.77 156.167C1186.15 156.558 1186.61 156.752 1187.17 156.749C1187.73 156.746 1188.19 156.552 1188.56 156.167C1188.94 155.781 1189.12 155.297 1189.12 154.713V152.633C1192.96 152.351 1196.68 151.565 1200.26 150.276C1203.84 148.986 1207.31 147.344 1210.67 145.35V173.034C1210.67 174.844 1210.05 176.392 1208.81 177.679C1207.56 178.965 1206.08 179.61 1204.34 179.613V181.648C1204.34 182.226 1204.15 182.709 1203.77 183.098C1203.39 183.486 1202.92 183.681 1202.36 183.684C1201.83 183.684 1201.42 183.467 1201.12 183.032C1200.82 182.595 1200.59 182.134 1200.42 181.648V179.609H1173.91V181.644C1173.91 182.222 1173.72 182.705 1173.34 183.094C1172.96 183.484 1172.49 183.68 1171.93 183.68C1171.4 183.68 1170.99 183.463 1170.69 183.028C1170.39 182.591 1170.16 182.13 1169.99 181.644Z" fill="#FC9DA9" fill-opacity="0.09"/>
<path d="M1256.8 113.539L1261.39 114.835C1264.32 115.665 1265.78 116.08 1266.77 117.118C1267.76 118.157 1268.1 119.632 1268.78 122.586L1269.85 127.229C1272.91 140.447 1274.44 147.054 1278.39 147.303C1282.35 147.544 1285.11 141.196 1290.63 128.509L1305.79 93.6747C1310.13 83.7133 1312.3 78.7287 1309.87 76.175C1307.43 73.6213 1302.34 75.5368 1292.16 79.3678L1256.55 92.7571C1243.59 97.635 1237.1 100.078 1237.14 104.03C1237.19 107.983 1243.73 109.83 1256.8 113.539Z" fill="#FC9DA9" fill-opacity="0.09"/>
<path d="M1175.4 282.354L1180.05 276.243L1170.68 237.004L1180.48 224.104C1181.78 222.394 1182.37 220.256 1182.12 218.162C1181.88 216.067 1180.81 214.188 1179.17 212.936C1177.52 211.685 1175.42 211.164 1173.34 211.488C1171.26 211.813 1169.36 212.956 1168.06 214.667L1158 227.905L1117.68 229.394L1113.3 235.163L1145.03 244.977L1133.75 259.814L1119.54 259.185L1114.64 265.635L1135.06 270.982L1145.69 289.229L1150.59 282.779L1146.18 269.251L1157.65 254.143L1175.4 282.354Z" fill="#FC9DA9" fill-opacity="0.09"/>
<path d="M1182.87 328.683H1191.46V319.759H1182.87V328.683ZM1187.17 350.606C1182.96 350.606 1178.89 349.851 1174.96 348.339C1171.04 346.827 1167.27 344.905 1163.67 342.574V335.258C1163.67 333.45 1164.28 331.903 1165.52 330.617C1166.76 329.33 1168.25 328.686 1169.99 328.683H1178.96V318.819C1178.96 317.977 1179.26 317.244 1179.86 316.62C1180.46 315.996 1181.16 315.684 1181.97 315.684H1192.36C1193.17 315.684 1193.88 315.996 1194.48 316.62C1195.08 317.244 1195.38 317.977 1195.38 318.819V328.683H1204.34C1206.08 328.683 1207.57 329.328 1208.81 330.617C1210.04 331.906 1210.66 333.453 1210.67 335.258V342.574C1207.06 344.908 1203.3 346.83 1199.37 348.339C1195.44 349.851 1191.37 350.606 1187.17 350.606ZM1169.99 383.644V381.609C1168.25 381.609 1166.76 380.964 1165.53 379.675C1164.29 378.386 1163.67 376.84 1163.67 375.038V347.354C1167.02 349.346 1170.49 350.988 1174.07 352.28C1177.65 353.566 1181.37 354.351 1185.21 354.633V356.713C1185.21 357.291 1185.4 357.776 1185.77 358.167C1186.15 358.558 1186.61 358.752 1187.17 358.749C1187.73 358.746 1188.19 358.552 1188.56 358.167C1188.94 357.781 1189.12 357.297 1189.12 356.713V354.633C1192.96 354.351 1196.68 353.565 1200.26 352.276C1203.84 350.986 1207.31 349.344 1210.67 347.35V375.034C1210.67 376.844 1210.05 378.392 1208.81 379.679C1207.56 380.965 1206.08 381.61 1204.34 381.613V383.648C1204.34 384.226 1204.15 384.709 1203.77 385.098C1203.39 385.486 1202.92 385.681 1202.36 385.684C1201.83 385.684 1201.42 385.467 1201.12 385.032C1200.82 384.595 1200.59 384.134 1200.42 383.648V381.609H1173.91V383.644C1173.91 384.222 1173.72 384.705 1173.34 385.094C1172.96 385.484 1172.49 385.68 1171.93 385.68C1171.4 385.68 1170.99 385.463 1170.69 385.028C1170.39 384.591 1170.16 384.13 1169.99 383.644Z" fill="#FC9DA9" fill-opacity="0.09"/>
<path d="M1256.8 315.539L1261.39 316.835C1264.32 317.665 1265.78 318.08 1266.77 319.118C1267.76 320.157 1268.1 321.632 1268.78 324.586L1269.85 329.229C1272.91 342.447 1274.44 349.054 1278.39 349.303C1282.35 349.544 1285.11 343.196 1290.63 330.509L1305.79 295.675C1310.13 285.713 1312.3 280.729 1309.87 278.175C1307.43 275.621 1302.34 277.537 1292.16 281.368L1256.55 294.757C1243.59 299.635 1237.1 302.078 1237.14 306.03C1237.19 309.983 1243.73 311.83 1256.8 315.539Z" fill="#FC9DA9" fill-opacity="0.09"/>
<path d="M1175.4 486.354L1180.05 480.243L1170.68 441.004L1180.48 428.104C1181.78 426.394 1182.37 424.256 1182.12 422.162C1181.88 420.067 1180.81 418.188 1179.17 416.936C1177.52 415.685 1175.42 415.164 1173.34 415.488C1171.26 415.813 1169.36 416.956 1168.06 418.667L1158 431.905L1117.68 433.394L1113.3 439.163L1145.03 448.977L1133.75 463.814L1119.54 463.185L1114.64 469.635L1135.06 474.982L1145.69 493.229L1150.59 486.779L1146.18 473.251L1157.65 458.143L1175.4 486.354Z" fill="#FC9DA9" fill-opacity="0.09"/>
<path d="M1182.87 532.683H1191.46V523.759H1182.87V532.683ZM1187.17 554.606C1182.96 554.606 1178.89 553.851 1174.96 552.339C1171.04 550.827 1167.27 548.905 1163.67 546.574V539.258C1163.67 537.45 1164.28 535.903 1165.52 534.617C1166.76 533.33 1168.25 532.686 1169.99 532.683H1178.96V522.819C1178.96 521.977 1179.26 521.244 1179.86 520.62C1180.46 519.996 1181.16 519.684 1181.97 519.684H1192.36C1193.17 519.684 1193.88 519.996 1194.48 520.62C1195.08 521.244 1195.38 521.977 1195.38 522.819V532.683H1204.34C1206.08 532.683 1207.57 533.328 1208.81 534.617C1210.04 535.906 1210.66 537.453 1210.67 539.258V546.574C1207.06 548.908 1203.3 550.83 1199.37 552.339C1195.44 553.851 1191.37 554.606 1187.17 554.606ZM1169.99 587.644V585.609C1168.25 585.609 1166.76 584.964 1165.53 583.675C1164.29 582.386 1163.67 580.84 1163.67 579.038V551.354C1167.02 553.346 1170.49 554.988 1174.07 556.28C1177.65 557.566 1181.37 558.351 1185.21 558.633V560.713C1185.21 561.291 1185.4 561.776 1185.77 562.167C1186.15 562.558 1186.61 562.752 1187.17 562.749C1187.73 562.746 1188.19 562.552 1188.56 562.167C1188.94 561.781 1189.12 561.297 1189.12 560.713V558.633C1192.96 558.351 1196.68 557.565 1200.26 556.276C1203.84 554.986 1207.31 553.344 1210.67 551.35V579.034C1210.67 580.844 1210.05 582.392 1208.81 583.679C1207.56 584.965 1206.08 585.61 1204.34 585.613V587.648C1204.34 588.226 1204.15 588.709 1203.77 589.098C1203.39 589.486 1202.92 589.681 1202.36 589.684C1201.83 589.684 1201.42 589.467 1201.12 589.032C1200.82 588.595 1200.59 588.134 1200.42 587.648V585.609H1173.91V587.644C1173.91 588.222 1173.72 588.705 1173.34 589.094C1172.96 589.484 1172.49 589.68 1171.93 589.68C1171.4 589.68 1170.99 589.463 1170.69 589.028C1170.39 588.591 1170.16 588.13 1169.99 587.644Z" fill="#FC9DA9" fill-opacity="0.09"/>
<path d="M1256.8 519.539L1261.39 520.835C1264.32 521.665 1265.78 522.08 1266.77 523.118C1267.76 524.157 1268.1 525.632 1268.78 528.586L1269.85 533.229C1272.91 546.447 1274.44 553.054 1278.39 553.303C1282.35 553.544 1285.11 547.196 1290.63 534.509L1305.79 499.675C1310.13 489.713 1312.3 484.729 1309.87 482.175C1307.43 479.621 1302.34 481.537 1292.16 485.368L1256.55 498.757C1243.59 503.635 1237.1 506.078 1237.14 510.03C1237.19 513.983 1243.73 515.83 1256.8 519.539Z" fill="#FC9DA9" fill-opacity="0.09"/>
<path d="M1175.4 684.354L1180.05 678.243L1170.68 639.004L1180.48 626.104C1181.78 624.394 1182.37 622.256 1182.12 620.162C1181.88 618.067 1180.81 616.188 1179.17 614.936C1177.52 613.685 1175.42 613.164 1173.34 613.488C1171.26 613.813 1169.36 614.956 1168.06 616.667L1158 629.905L1117.68 631.394L1113.3 637.163L1145.03 646.977L1133.75 661.814L1119.54 661.185L1114.64 667.635L1135.06 672.982L1145.69 691.229L1150.59 684.779L1146.18 671.251L1157.65 656.143L1175.4 684.354Z" fill="#FC9DA9" fill-opacity="0.09"/>
<path d="M1182.87 730.683H1191.46V721.759H1182.87V730.683ZM1187.17 752.606C1182.96 752.606 1178.89 751.851 1174.96 750.339C1171.04 748.827 1167.27 746.905 1163.67 744.574V737.258C1163.67 735.45 1164.28 733.903 1165.52 732.617C1166.76 731.33 1168.25 730.686 1169.99 730.683H1178.96V720.819C1178.96 719.977 1179.26 719.244 1179.86 718.62C1180.46 717.996 1181.16 717.684 1181.97 717.684H1192.36C1193.17 717.684 1193.88 717.996 1194.48 718.62C1195.08 719.244 1195.38 719.977 1195.38 720.819V730.683H1204.34C1206.08 730.683 1207.57 731.328 1208.81 732.617C1210.04 733.906 1210.66 735.453 1210.67 737.258V744.574C1207.06 746.908 1203.3 748.83 1199.37 750.339C1195.44 751.851 1191.37 752.606 1187.17 752.606ZM1169.99 785.644V783.609C1168.25 783.609 1166.76 782.964 1165.53 781.675C1164.29 780.386 1163.67 778.84 1163.67 777.038V749.354C1167.02 751.346 1170.49 752.988 1174.07 754.28C1177.65 755.566 1181.37 756.351 1185.21 756.633V758.713C1185.21 759.291 1185.4 759.776 1185.77 760.167C1186.15 760.558 1186.61 760.752 1187.17 760.749C1187.73 760.746 1188.19 760.552 1188.56 760.167C1188.94 759.781 1189.12 759.297 1189.12 758.713V756.633C1192.96 756.351 1196.68 755.565 1200.26 754.276C1203.84 752.986 1207.31 751.344 1210.67 749.35V777.034C1210.67 778.844 1210.05 780.392 1208.81 781.679C1207.56 782.965 1206.08 783.61 1204.34 783.613V785.648C1204.34 786.226 1204.15 786.709 1203.77 787.098C1203.39 787.486 1202.92 787.681 1202.36 787.684C1201.83 787.684 1201.42 787.467 1201.12 787.032C1200.82 786.595 1200.59 786.134 1200.42 785.648V783.609H1173.91V785.644C1173.91 786.222 1173.72 786.705 1173.34 787.094C1172.96 787.484 1172.49 787.68 1171.93 787.68C1171.4 787.68 1170.99 787.463 1170.69 787.028C1170.39 786.591 1170.16 786.13 1169.99 785.644Z" fill="#FC9DA9" fill-opacity="0.09"/>
<path d="M1256.8 717.539L1261.39 718.835C1264.32 719.665 1265.78 720.08 1266.77 721.118C1267.76 722.157 1268.1 723.632 1268.78 726.586L1269.85 731.229C1272.91 744.447 1274.44 751.054 1278.39 751.303C1282.35 751.544 1285.11 745.196 1290.63 732.509L1305.79 697.675C1310.13 687.713 1312.3 682.729 1309.87 680.175C1307.43 677.621 1302.34 679.537 1292.16 683.368L1256.55 696.757C1243.59 701.635 1237.1 704.078 1237.14 708.03C1237.19 711.983 1243.73 713.83 1256.8 717.539Z" fill="#FC9DA9" fill-opacity="0.09"/>
<path d="M1175.4 878.354L1180.05 872.243L1170.68 833.004L1180.48 820.104C1181.78 818.394 1182.37 816.256 1182.12 814.162C1181.88 812.067 1180.81 810.188 1179.17 808.936C1177.52 807.685 1175.42 807.164 1173.34 807.488C1171.26 807.813 1169.36 808.956 1168.06 810.667L1158 823.905L1117.68 825.394L1113.3 831.163L1145.03 840.977L1133.75 855.814L1119.54 855.185L1114.64 861.635L1135.06 866.982L1145.69 885.229L1150.59 878.779L1146.18 865.251L1157.65 850.143L1175.4 878.354Z" fill="#FC9DA9" fill-opacity="0.09"/>
<path d="M1182.87 924.683H1191.46V915.759H1182.87V924.683ZM1187.17 946.606C1182.96 946.606 1178.89 945.851 1174.96 944.339C1171.04 942.827 1167.27 940.905 1163.67 938.574V931.258C1163.67 929.45 1164.28 927.903 1165.52 926.617C1166.76 925.33 1168.25 924.686 1169.99 924.683H1178.96V914.819C1178.96 913.977 1179.26 913.244 1179.86 912.62C1180.46 911.996 1181.16 911.684 1181.97 911.684H1192.36C1193.17 911.684 1193.88 911.996 1194.48 912.62C1195.08 913.244 1195.38 913.977 1195.38 914.819V924.683H1204.34C1206.08 924.683 1207.57 925.328 1208.81 926.617C1210.04 927.906 1210.66 929.453 1210.67 931.258V938.574C1207.06 940.908 1203.3 942.83 1199.37 944.339C1195.44 945.851 1191.37 946.606 1187.17 946.606ZM1169.99 979.644V977.609C1168.25 977.609 1166.76 976.964 1165.53 975.675C1164.29 974.386 1163.67 972.84 1163.67 971.038V943.354C1167.02 945.346 1170.49 946.988 1174.07 948.28C1177.65 949.566 1181.37 950.351 1185.21 950.633V952.713C1185.21 953.291 1185.4 953.776 1185.77 954.167C1186.15 954.558 1186.61 954.752 1187.17 954.749C1187.73 954.746 1188.19 954.552 1188.56 954.167C1188.94 953.781 1189.12 953.297 1189.12 952.713V950.633C1192.96 950.351 1196.68 949.565 1200.26 948.276C1203.84 946.986 1207.31 945.344 1210.67 943.35V971.034C1210.67 972.844 1210.05 974.392 1208.81 975.679C1207.56 976.965 1206.08 977.61 1204.34 977.613V979.648C1204.34 980.226 1204.15 980.709 1203.77 981.098C1203.39 981.486 1202.92 981.681 1202.36 981.684C1201.83 981.684 1201.42 981.467 1201.12 981.032C1200.82 980.595 1200.59 980.134 1200.42 979.648V977.609H1173.91V979.644C1173.91 980.222 1173.72 980.705 1173.34 981.094C1172.96 981.484 1172.49 981.68 1171.93 981.68C1171.4 981.68 1170.99 981.463 1170.69 981.028C1170.39 980.591 1170.16 980.13 1169.99 979.644Z" fill="#FC9DA9" fill-opacity="0.09"/>
<path d="M1256.8 911.539L1261.39 912.835C1264.32 913.665 1265.78 914.08 1266.77 915.118C1267.76 916.157 1268.1 917.632 1268.78 920.586L1269.85 925.229C1272.91 938.447 1274.44 945.054 1278.39 945.303C1282.35 945.544 1285.11 939.196 1290.63 926.509L1305.79 891.675C1310.13 881.713 1312.3 876.729 1309.87 874.175C1307.43 871.621 1302.34 873.537 1292.16 877.368L1256.55 890.757C1243.59 895.635 1237.1 898.078 1237.14 902.03C1237.19 905.983 1243.73 907.83 1256.8 911.539Z" fill="#FC9DA9" fill-opacity="0.09"/>
<path d="M1407.29 80.3543L1411.94 74.2433L1402.57 35.0036L1412.37 22.1044C1413.67 20.3939 1414.26 18.2563 1414.01 16.1618C1413.77 14.0673 1412.7 12.1875 1411.06 10.936C1409.41 9.68452 1407.31 9.16378 1405.23 9.48836C1403.15 9.81293 1401.25 10.9562 1399.95 12.6668L1389.89 25.9045L1349.57 27.3937L1345.19 33.1629L1376.92 42.9765L1365.64 57.8137L1351.43 57.1851L1346.53 63.6346L1366.95 68.9821L1377.58 87.2288L1382.48 80.7792L1378.06 67.2514L1389.54 52.1433L1407.29 80.3543Z" fill="#FC9DA9" fill-opacity="0.09"/>
<path d="M1414.76 126.683H1423.35V117.759H1414.76V126.683ZM1419.06 148.606C1414.85 148.606 1410.78 147.851 1406.85 146.339C1402.93 144.827 1399.16 142.905 1395.56 140.574V133.258C1395.56 131.45 1396.17 129.903 1397.41 128.617C1398.65 127.33 1400.14 126.686 1401.88 126.683H1410.85V116.819C1410.85 115.977 1411.15 115.244 1411.75 114.62C1412.35 113.996 1413.05 113.684 1413.86 113.684H1424.25C1425.06 113.684 1425.77 113.996 1426.37 114.62C1426.97 115.244 1427.27 115.977 1427.27 116.819V126.683H1436.23C1437.97 126.683 1439.46 127.328 1440.69 128.617C1441.93 129.906 1442.55 131.453 1442.56 133.258V140.574C1438.95 142.908 1435.19 144.83 1431.26 146.339C1427.33 147.851 1423.26 148.606 1419.06 148.606ZM1401.88 181.644V179.609C1400.14 179.609 1398.65 178.964 1397.42 177.675C1396.18 176.386 1395.56 174.84 1395.56 173.038V145.354C1398.91 147.346 1402.38 148.988 1405.96 150.28C1409.54 151.566 1413.26 152.351 1417.1 152.633V154.713C1417.1 155.291 1417.28 155.776 1417.66 156.167C1418.04 156.558 1418.5 156.752 1419.06 156.749C1419.62 156.746 1420.08 156.552 1420.45 156.167C1420.83 155.781 1421.01 155.297 1421.01 154.713V152.633C1424.85 152.351 1428.57 151.565 1432.15 150.276C1435.73 148.986 1439.2 147.344 1442.56 145.35V173.034C1442.56 174.844 1441.94 176.392 1440.69 177.679C1439.45 178.965 1437.97 179.61 1436.23 179.613V181.648C1436.23 182.226 1436.04 182.709 1435.66 183.098C1435.28 183.486 1434.81 183.681 1434.25 183.684C1433.72 183.684 1433.31 183.467 1433.01 183.032C1432.71 182.595 1432.48 182.134 1432.31 181.648V179.609H1405.8V181.644C1405.8 182.222 1405.61 182.705 1405.23 183.094C1404.85 183.484 1404.38 183.68 1403.82 183.68C1403.29 183.68 1402.88 183.463 1402.58 183.028C1402.28 182.591 1402.05 182.13 1401.88 181.644Z" fill="#FC9DA9" fill-opacity="0.09"/>
<path d="M1488.69 113.539L1493.28 114.835C1496.21 115.665 1497.67 116.08 1498.66 117.118C1499.65 118.157 1499.99 119.632 1500.67 122.586L1501.74 127.229C1504.8 140.447 1506.33 147.054 1510.28 147.303C1514.24 147.544 1517 141.196 1522.52 128.509L1537.68 93.6747C1542.02 83.7133 1544.19 78.7287 1541.76 76.175C1539.32 73.6213 1534.23 75.5368 1524.05 79.3678L1488.44 92.7571C1475.48 97.635 1468.99 100.078 1469.03 104.03C1469.08 107.983 1475.62 109.83 1488.69 113.539Z" fill="#FC9DA9" fill-opacity="0.09"/>
<path d="M1407.29 282.354L1411.94 276.243L1402.57 237.004L1412.37 224.104C1413.67 222.394 1414.26 220.256 1414.01 218.162C1413.77 216.067 1412.7 214.188 1411.06 212.936C1409.41 211.685 1407.31 211.164 1405.23 211.488C1403.15 211.813 1401.25 212.956 1399.95 214.667L1389.89 227.905L1349.57 229.394L1345.19 235.163L1376.92 244.977L1365.64 259.814L1351.43 259.185L1346.53 265.635L1366.95 270.982L1377.58 289.229L1382.48 282.779L1378.06 269.251L1389.54 254.143L1407.29 282.354Z" fill="#FC9DA9" fill-opacity="0.09"/>
<path d="M1414.76 328.683H1423.35V319.759H1414.76V328.683ZM1419.06 350.606C1414.85 350.606 1410.78 349.851 1406.85 348.339C1402.93 346.827 1399.16 344.905 1395.56 342.574V335.258C1395.56 333.45 1396.17 331.903 1397.41 330.617C1398.65 329.33 1400.14 328.686 1401.88 328.683H1410.85V318.819C1410.85 317.977 1411.15 317.244 1411.75 316.62C1412.35 315.996 1413.05 315.684 1413.86 315.684H1424.25C1425.06 315.684 1425.77 315.996 1426.37 316.62C1426.97 317.244 1427.27 317.977 1427.27 318.819V328.683H1436.23C1437.97 328.683 1439.46 329.328 1440.69 330.617C1441.93 331.906 1442.55 333.453 1442.56 335.258V342.574C1438.95 344.908 1435.19 346.83 1431.26 348.339C1427.33 349.851 1423.26 350.606 1419.06 350.606ZM1401.88 383.644V381.609C1400.14 381.609 1398.65 380.964 1397.42 379.675C1396.18 378.386 1395.56 376.84 1395.56 375.038V347.354C1398.91 349.346 1402.38 350.988 1405.96 352.28C1409.54 353.566 1413.26 354.351 1417.1 354.633V356.713C1417.1 357.291 1417.28 357.776 1417.66 358.167C1418.04 358.558 1418.5 358.752 1419.06 358.749C1419.62 358.746 1420.08 358.552 1420.45 358.167C1420.83 357.781 1421.01 357.297 1421.01 356.713V354.633C1424.85 354.351 1428.57 353.565 1432.15 352.276C1435.73 350.986 1439.2 349.344 1442.56 347.35V375.034C1442.56 376.844 1441.94 378.392 1440.69 379.679C1439.45 380.965 1437.97 381.61 1436.23 381.613V383.648C1436.23 384.226 1436.04 384.709 1435.66 385.098C1435.28 385.486 1434.81 385.681 1434.25 385.684C1433.72 385.684 1433.31 385.467 1433.01 385.032C1432.71 384.595 1432.48 384.134 1432.31 383.648V381.609H1405.8V383.644C1405.8 384.222 1405.61 384.705 1405.23 385.094C1404.85 385.484 1404.38 385.68 1403.82 385.68C1403.29 385.68 1402.88 385.463 1402.58 385.028C1402.28 384.591 1402.05 384.13 1401.88 383.644Z" fill="#FC9DA9" fill-opacity="0.09"/>
<path d="M1488.69 315.539L1493.28 316.835C1496.21 317.665 1497.67 318.08 1498.66 319.118C1499.65 320.157 1499.99 321.632 1500.67 324.586L1501.74 329.229C1504.8 342.447 1506.33 349.054 1510.28 349.303C1514.24 349.544 1517 343.196 1522.52 330.509L1537.68 295.675C1542.02 285.713 1544.19 280.729 1541.76 278.175C1539.32 275.621 1534.23 277.537 1524.05 281.368L1488.44 294.757C1475.48 299.635 1468.99 302.078 1469.03 306.03C1469.08 309.983 1475.62 311.83 1488.69 315.539Z" fill="#FC9DA9" fill-opacity="0.09"/>
<path d="M1407.29 486.354L1411.94 480.243L1402.57 441.004L1412.37 428.104C1413.67 426.394 1414.26 424.256 1414.01 422.162C1413.77 420.067 1412.7 418.188 1411.06 416.936C1409.41 415.685 1407.31 415.164 1405.23 415.488C1403.15 415.813 1401.25 416.956 1399.95 418.667L1389.89 431.905L1349.57 433.394L1345.19 439.163L1376.92 448.977L1365.64 463.814L1351.43 463.185L1346.53 469.635L1366.95 474.982L1377.58 493.229L1382.48 486.779L1378.06 473.251L1389.54 458.143L1407.29 486.354Z" fill="#FC9DA9" fill-opacity="0.09"/>
<path d="M1414.76 532.683H1423.35V523.759H1414.76V532.683ZM1419.06 554.606C1414.85 554.606 1410.78 553.851 1406.85 552.339C1402.93 550.827 1399.16 548.905 1395.56 546.574V539.258C1395.56 537.45 1396.17 535.903 1397.41 534.617C1398.65 533.33 1400.14 532.686 1401.88 532.683H1410.85V522.819C1410.85 521.977 1411.15 521.244 1411.75 520.62C1412.35 519.996 1413.05 519.684 1413.86 519.684H1424.25C1425.06 519.684 1425.77 519.996 1426.37 520.62C1426.97 521.244 1427.27 521.977 1427.27 522.819V532.683H1436.23C1437.97 532.683 1439.46 533.328 1440.69 534.617C1441.93 535.906 1442.55 537.453 1442.56 539.258V546.574C1438.95 548.908 1435.19 550.83 1431.26 552.339C1427.33 553.851 1423.26 554.606 1419.06 554.606ZM1401.88 587.644V585.609C1400.14 585.609 1398.65 584.964 1397.42 583.675C1396.18 582.386 1395.56 580.84 1395.56 579.038V551.354C1398.91 553.346 1402.38 554.988 1405.96 556.28C1409.54 557.566 1413.26 558.351 1417.1 558.633V560.713C1417.1 561.291 1417.28 561.776 1417.66 562.167C1418.04 562.558 1418.5 562.752 1419.06 562.749C1419.62 562.746 1420.08 562.552 1420.45 562.167C1420.83 561.781 1421.01 561.297 1421.01 560.713V558.633C1424.85 558.351 1428.57 557.565 1432.15 556.276C1435.73 554.986 1439.2 553.344 1442.56 551.35V579.034C1442.56 580.844 1441.94 582.392 1440.69 583.679C1439.45 584.965 1437.97 585.61 1436.23 585.613V587.648C1436.23 588.226 1436.04 588.709 1435.66 589.098C1435.28 589.486 1434.81 589.681 1434.25 589.684C1433.72 589.684 1433.31 589.467 1433.01 589.032C1432.71 588.595 1432.48 588.134 1432.31 587.648V585.609H1405.8V587.644C1405.8 588.222 1405.61 588.705 1405.23 589.094C1404.85 589.484 1404.38 589.68 1403.82 589.68C1403.29 589.68 1402.88 589.463 1402.58 589.028C1402.28 588.591 1402.05 588.13 1401.88 587.644Z" fill="#FC9DA9" fill-opacity="0.09"/>
<path d="M1488.69 519.539L1493.28 520.835C1496.21 521.665 1497.67 522.08 1498.66 523.118C1499.65 524.157 1499.99 525.632 1500.67 528.586L1501.74 533.229C1504.8 546.447 1506.33 553.054 1510.28 553.303C1514.24 553.544 1517 547.196 1522.52 534.509L1537.68 499.675C1542.02 489.713 1544.19 484.729 1541.76 482.175C1539.32 479.621 1534.23 481.537 1524.05 485.368L1488.44 498.757C1475.48 503.635 1468.99 506.078 1469.03 510.03C1469.08 513.983 1475.62 515.83 1488.69 519.539Z" fill="#FC9DA9" fill-opacity="0.09"/>
<path d="M1407.29 684.354L1411.94 678.243L1402.57 639.004L1412.37 626.104C1413.67 624.394 1414.26 622.256 1414.01 620.162C1413.77 618.067 1412.7 616.188 1411.06 614.936C1409.41 613.685 1407.31 613.164 1405.23 613.488C1403.15 613.813 1401.25 614.956 1399.95 616.667L1389.89 629.905L1349.57 631.394L1345.19 637.163L1376.92 646.977L1365.64 661.814L1351.43 661.185L1346.53 667.635L1366.95 672.982L1377.58 691.229L1382.48 684.779L1378.06 671.251L1389.54 656.143L1407.29 684.354Z" fill="#FC9DA9" fill-opacity="0.09"/>
<path d="M1414.76 730.683H1423.35V721.759H1414.76V730.683ZM1419.06 752.606C1414.85 752.606 1410.78 751.851 1406.85 750.339C1402.93 748.827 1399.16 746.905 1395.56 744.574V737.258C1395.56 735.45 1396.17 733.903 1397.41 732.617C1398.65 731.33 1400.14 730.686 1401.88 730.683H1410.85V720.819C1410.85 719.977 1411.15 719.244 1411.75 718.62C1412.35 717.996 1413.05 717.684 1413.86 717.684H1424.25C1425.06 717.684 1425.77 717.996 1426.37 718.62C1426.97 719.244 1427.27 719.977 1427.27 720.819V730.683H1436.23C1437.97 730.683 1439.46 731.328 1440.69 732.617C1441.93 733.906 1442.55 735.453 1442.56 737.258V744.574C1438.95 746.908 1435.19 748.83 1431.26 750.339C1427.33 751.851 1423.26 752.606 1419.06 752.606ZM1401.88 785.644V783.609C1400.14 783.609 1398.65 782.964 1397.42 781.675C1396.18 780.386 1395.56 778.84 1395.56 777.038V749.354C1398.91 751.346 1402.38 752.988 1405.96 754.28C1409.54 755.566 1413.26 756.351 1417.1 756.633V758.713C1417.1 759.291 1417.28 759.776 1417.66 760.167C1418.04 760.558 1418.5 760.752 1419.06 760.749C1419.62 760.746 1420.08 760.552 1420.45 760.167C1420.83 759.781 1421.01 759.297 1421.01 758.713V756.633C1424.85 756.351 1428.57 755.565 1432.15 754.276C1435.73 752.986 1439.2 751.344 1442.56 749.35V777.034C1442.56 778.844 1441.94 780.392 1440.69 781.679C1439.45 782.965 1437.97 783.61 1436.23 783.613V785.648C1436.23 786.226 1436.04 786.709 1435.66 787.098C1435.28 787.486 1434.81 787.681 1434.25 787.684C1433.72 787.684 1433.31 787.467 1433.01 787.032C1432.71 786.595 1432.48 786.134 1432.31 785.648V783.609H1405.8V785.644C1405.8 786.222 1405.61 786.705 1405.23 787.094C1404.85 787.484 1404.38 787.68 1403.82 787.68C1403.29 787.68 1402.88 787.463 1402.58 787.028C1402.28 786.591 1402.05 786.13 1401.88 785.644Z" fill="#FC9DA9" fill-opacity="0.09"/>
<path d="M1488.69 717.539L1493.28 718.835C1496.21 719.665 1497.67 720.08 1498.66 721.118C1499.65 722.157 1499.99 723.632 1500.67 726.586L1501.74 731.229C1504.8 744.447 1506.33 751.054 1510.28 751.303C1514.24 751.544 1517 745.196 1522.52 732.509L1537.68 697.675C1542.02 687.713 1544.19 682.729 1541.76 680.175C1539.32 677.621 1534.23 679.537 1524.05 683.368L1488.44 696.757C1475.48 701.635 1468.99 704.078 1469.03 708.03C1469.08 711.983 1475.62 713.83 1488.69 717.539Z" fill="#FC9DA9" fill-opacity="0.09"/>
<path d="M1407.29 878.354L1411.94 872.243L1402.57 833.004L1412.37 820.104C1413.67 818.394 1414.26 816.256 1414.01 814.162C1413.77 812.067 1412.7 810.188 1411.06 808.936C1409.41 807.685 1407.31 807.164 1405.23 807.488C1403.15 807.813 1401.25 808.956 1399.95 810.667L1389.89 823.905L1349.57 825.394L1345.19 831.163L1376.92 840.977L1365.64 855.814L1351.43 855.185L1346.53 861.635L1366.95 866.982L1377.58 885.229L1382.48 878.779L1378.06 865.251L1389.54 850.143L1407.29 878.354Z" fill="#FC9DA9" fill-opacity="0.09"/>
<path d="M1414.76 924.683H1423.35V915.759H1414.76V924.683ZM1419.06 946.606C1414.85 946.606 1410.78 945.851 1406.85 944.339C1402.93 942.827 1399.16 940.905 1395.56 938.574V931.258C1395.56 929.45 1396.17 927.903 1397.41 926.617C1398.65 925.33 1400.14 924.686 1401.88 924.683H1410.85V914.819C1410.85 913.977 1411.15 913.244 1411.75 912.62C1412.35 911.996 1413.05 911.684 1413.86 911.684H1424.25C1425.06 911.684 1425.77 911.996 1426.37 912.62C1426.97 913.244 1427.27 913.977 1427.27 914.819V924.683H1436.23C1437.97 924.683 1439.46 925.328 1440.69 926.617C1441.93 927.906 1442.55 929.453 1442.56 931.258V938.574C1438.95 940.908 1435.19 942.83 1431.26 944.339C1427.33 945.851 1423.26 946.606 1419.06 946.606ZM1401.88 979.644V977.609C1400.14 977.609 1398.65 976.964 1397.42 975.675C1396.18 974.386 1395.56 972.84 1395.56 971.038V943.354C1398.91 945.346 1402.38 946.988 1405.96 948.28C1409.54 949.566 1413.26 950.351 1417.1 950.633V952.713C1417.1 953.291 1417.28 953.776 1417.66 954.167C1418.04 954.558 1418.5 954.752 1419.06 954.749C1419.62 954.746 1420.08 954.552 1420.45 954.167C1420.83 953.781 1421.01 953.297 1421.01 952.713V950.633C1424.85 950.351 1428.57 949.565 1432.15 948.276C1435.73 946.986 1439.2 945.344 1442.56 943.35V971.034C1442.56 972.844 1441.94 974.392 1440.69 975.679C1439.45 976.965 1437.97 977.61 1436.23 977.613V979.648C1436.23 980.226 1436.04 980.709 1435.66 981.098C1435.28 981.486 1434.81 981.681 1434.25 981.684C1433.72 981.684 1433.31 981.467 1433.01 981.032C1432.71 980.595 1432.48 980.134 1432.31 979.648V977.609H1405.8V979.644C1405.8 980.222 1405.61 980.705 1405.23 981.094C1404.85 981.484 1404.38 981.68 1403.82 981.68C1403.29 981.68 1402.88 981.463 1402.58 981.028C1402.28 980.591 1402.05 980.13 1401.88 979.644Z" fill="#FC9DA9" fill-opacity="0.09"/>
<path d="M1488.69 911.539L1493.28 912.835C1496.21 913.665 1497.67 914.08 1498.66 915.118C1499.65 916.157 1499.99 917.632 1500.67 920.586L1501.74 925.229C1504.8 938.447 1506.33 945.054 1510.28 945.303C1514.24 945.544 1517 939.196 1522.52 926.509L1537.68 891.675C1542.02 881.713 1544.19 876.729 1541.76 874.175C1539.32 871.621 1534.23 873.537 1524.05 877.368L1488.44 890.757C1475.48 895.635 1468.99 898.078 1469.03 902.03C1469.08 905.983 1475.62 907.83 1488.69 911.539Z" fill="#FC9DA9" fill-opacity="0.09"/>
</g>
<defs>
<clipPath id="clip0_140_9">
<rect width="1512" height="982" fill="white"/>
</clipPath>
</defs>
</svg>
