<svg width="627" height="555" viewBox="0 0 627 555" fill="none" xmlns="http://www.w3.org/2000/svg">
<g clip-path="url(#clip0_161_368)">
<path d="M216.317 213.059C214.909 216.752 216.217 221.117 213.388 224.501C213.208 224.734 213.275 225.4 213.46 225.719C215.491 229.063 213.594 231.632 211.682 234.19C210.494 235.729 209.628 236.989 211.053 239.164C212.478 241.339 211.347 244.368 210.336 246.877C209.966 247.717 209.797 248.629 209.842 249.541C209.888 250.452 210.146 251.336 210.598 252.121C212.133 255.222 212.393 258.821 211.323 262.153C210.795 264.054 210.665 266.037 210.943 267.977C210.914 268.483 211.061 268.981 211.36 269.384C211.659 269.787 212.091 270.07 212.58 270.185C217.579 271.612 221.659 275.179 226.585 276.616C226.91 276.67 227.201 276.846 227.398 277.108C227.596 277.371 227.685 277.7 227.65 278.03C227.639 278.712 227.406 279.375 226.986 279.919C226.567 280.462 225.984 280.855 225.327 281.038C221.285 281.66 217.543 283.616 214.695 286.596C214.568 286.761 214.272 286.949 214.132 286.907C209.762 285.725 206.529 288.599 202.831 289.843C201.969 290.121 200.922 290.277 200.27 289.641C198.197 287.58 196.17 288.668 193.888 289.361C189.188 290.73 184.443 291.933 179.68 292.991C177.073 293.626 174.568 294.648 172.25 296.023C171.583 296.384 170.576 296.571 170.614 297.5C170.808 300.04 168.947 301.584 167.878 303.499C165.868 307.078 165.443 311.398 162.208 314.469C160.458 316.121 158.752 317.939 157.095 319.75C155.74 321.225 154.045 320.684 152.421 320.219C150.796 319.753 149.062 319.291 147.484 318.599C146.854 318.353 146.363 317.733 145.763 318.454C143.678 320.987 140.805 320.742 138.067 320.798C137.414 320.774 136.766 320.95 136.209 321.303C135.652 321.656 135.211 322.168 134.946 322.773C133.845 324.729 132.507 326.546 131.416 328.488C129.764 331.465 127.565 331.521 125.016 329.991C123.363 328.977 121.776 327.905 119.799 326.641C119.828 328.301 120.314 329.914 121.203 331.3C121.847 332.783 121.909 333.819 119.957 334.197C112.652 335.615 105.375 337.362 98.0101 338.383C96.0716 338.636 94.1085 338.486 92.2431 337.943C90.3776 337.4 88.6496 336.475 87.1667 335.227C83.1826 332.274 79.3995 329.059 75.8417 325.603C74.3658 324.025 73.8621 322.583 75.6133 320.735C76.5998 319.764 77.1089 318.798 75.7661 317.41C75.4895 317.132 75.282 316.792 75.1595 316.417C75.0371 316.042 75.0031 315.642 75.0604 315.249C75.1177 314.856 75.2646 314.48 75.4896 314.151C75.7146 313.821 76.0118 313.547 76.3576 313.35C84.7216 307.071 86.4898 297.803 87.2887 288.421C87.8547 282.105 93.2165 272.762 98.9162 270.323C102.81 268.66 106.848 267.284 107.655 262.162C107.8 261.222 108.992 260.432 109.67 259.553C110.886 258.317 111.807 256.822 112.363 255.183C112.919 253.544 113.094 251.805 112.875 250.1C112.079 245.1 114.396 240.509 115.986 235.883C116.087 235.558 116.302 235.28 116.59 235.1C121.34 233.528 120.639 228.908 122.03 225.488C122.287 225.014 122.445 224.493 122.495 223.958C122.544 223.423 122.484 222.886 122.317 222.379C122.151 221.872 121.882 221.407 121.527 221.011C121.172 220.616 120.739 220.3 120.255 220.082C118.849 219.451 117.704 218.358 117.008 216.98C116.311 215.602 116.102 214.02 116.416 212.491C116.733 210.237 115.765 209.313 113.524 209.227C107.063 208.995 102.722 204.678 98.1903 200.915C96.5563 199.653 95.3503 198.283 93.0655 198.645C91.6217 198.867 90.5414 198.647 90.6385 196.595C90.4604 195.51 89.9695 194.506 89.226 193.706C86.8818 190.23 85.0292 186.438 83.7205 182.438C83.5195 182.052 83.3988 181.629 83.3654 181.192C83.3321 180.756 83.3866 180.316 83.5262 179.898C83.906 178.908 84.0232 177.84 83.8662 176.8C83.7092 175.759 83.2835 174.783 82.6312 173.967C80.6892 171.261 80.8999 168.727 82.8959 165.751C85.9299 161.34 88.4945 156.625 90.5467 151.686C92.1961 148.094 95.0013 145.151 98.5033 143.338C103.347 140.5 107.685 137.032 112.894 134.894C114.13 134.28 115.475 133.926 116.845 133.852C118.214 133.779 119.58 133.987 120.857 134.466C122.62 135.3 124.63 135.48 126.534 134.974C128.437 134.468 130.115 133.31 131.272 131.7C131.743 130.944 132.443 130.356 133.266 130.024C134.089 129.693 134.993 129.634 135.842 129.858C138.047 130.465 139.331 128.803 140.878 127.805C145.049 125.195 149.524 126.436 151.046 131.054C151.881 133.518 152.994 134.422 155.522 133.633C158.986 132.581 161.625 133.436 164.756 135.635C170.193 139.483 176.508 142.08 182.57 145.007C183.715 145.563 184.245 145.797 183.538 147.049C181.987 149.754 180.912 152.849 177.895 154.355C176.172 155.217 176.526 156.127 177.49 157.112C182.038 161.923 185.556 167.623 187.832 173.87C188.453 175.293 189.34 176.58 190.444 177.663C192.039 179.311 193.6 179.969 195.02 177.097C196.246 174.645 198.218 174.436 200.397 176.054C201.641 176.956 202.665 178.129 203.395 179.487C207.177 186.38 212.397 192.356 218.706 197.013C223.419 200.653 227.954 198.103 232.437 196.151C233.984 195.576 235.305 194.503 236.189 193.1C237.073 191.698 237.47 190.046 237.317 188.408C237.278 187.063 236.618 186.969 235.706 186.922C231.806 186.695 228.78 183.941 224.985 183.356C224.22 183.205 223.499 182.892 222.868 182.439C222.237 181.986 221.711 181.402 221.324 180.726C221.57 179.207 221.826 177.759 220.393 176.543C219.862 176.064 219.512 175.415 219.4 174.704C219.288 173.992 219.421 173.259 219.776 172.625C221.222 170.244 222.439 167.733 223.411 165.127C224.75 164.845 225.63 165.854 226.728 166.219C228.45 166.782 230.189 168.41 232.139 166.583C233.675 167.638 235.52 168.208 237.079 169.148C241.037 171.504 245.61 173.26 247.257 178.303C248.064 180.746 256.593 186.369 260.142 186.939C258.055 185.174 258.502 183.479 259.464 181.898C259.95 181.046 259.492 180.187 259.333 179.276C258.754 174.443 256.02 170.753 253.31 167.059C252.944 166.369 252.378 165.809 251.687 165.45C250.995 165.092 250.208 164.952 249.429 165.049C248.398 165.239 247.805 164.584 248.119 163.73C249.679 159.673 246.168 157.268 245.254 154.041C244.678 151.995 243.671 152.182 242.167 153.235C239.17 155.547 236.019 157.649 232.739 159.526C232.25 159.749 231.816 160.077 231.466 160.487C231.116 160.897 230.86 161.378 230.716 161.895C230.572 162.413 230.543 162.955 230.632 163.481C230.721 164.007 230.926 164.505 231.231 164.939C228.135 164.872 225.164 164.42 222.967 161.933C222.653 161.777 222.299 161.715 221.948 161.755C221.596 161.794 221.262 161.933 220.984 162.156L220.969 162.035C220.555 161.951 220.135 161.898 219.713 161.876C217.471 161.986 214.552 161.244 215.693 165.349C216.029 166.617 214.42 166.997 213.697 167.096C211.62 167.356 210.802 168.807 209.903 170.305C208.103 168.784 207.614 165.117 208.156 162.992C208.856 160.244 210.576 157.626 209.833 154.596C209.758 154.275 209.692 153.829 209.851 153.623C213.307 148.618 210.411 144.189 208.943 139.613C208.104 137.014 207.432 134.367 206.7 131.741C206.659 131.43 206.67 131.113 206.735 130.803C206.806 130.069 208.965 129.171 206.877 128.721C205.476 128.385 203.24 128.74 203.214 130.672C203.003 134.737 203.465 138.799 204.582 142.691C205.408 145.083 206.474 147.332 207.322 149.696C207.775 150.924 207.764 152.362 205.984 152.852C204.877 151.996 206.165 150.579 204.851 149.433C203.7 154.135 200.195 155.769 196.144 155.403C192.99 155.16 192.258 151.613 190.313 149.387C192.101 148.97 193.295 149.936 194.644 150.255C195.237 150.409 195.859 150.431 196.466 150.321C197.073 150.211 197.651 149.97 198.16 149.615C198.67 149.261 199.099 148.801 199.417 148.267C199.736 147.733 199.936 147.139 200.005 146.524C200.106 145.527 200.175 144.462 200.333 143.531C200.656 141.94 200.043 141.115 198.491 141.254C196.165 141.475 196.149 140.322 196.561 138.645C197.516 135.546 197.827 132.292 197.473 129.088C197.075 126.588 196.703 125.117 193.633 124.96C190.171 124.808 186.186 125.195 184.488 120.638C183.944 119.165 181.903 120.133 181.498 121.048C180.428 123.466 178.502 123.448 176.538 123.422C174.883 123.254 173.209 123.629 171.767 124.49C170.324 125.352 169.19 126.654 168.533 128.203C167.783 129.816 166.521 130.53 165.645 128.844C163.809 125.387 160.816 126.08 157.893 126.124C155.24 126.218 152.649 125.402 150.548 123.81C148.446 122.219 146.958 119.947 146.329 117.369C146.09 116.395 145.69 115.209 146.55 114.514C149.208 112.357 149.531 109.12 150.737 106.302C151.595 104.507 152.776 102.884 154.219 101.514C156.318 99.2985 158.911 99.7659 159.973 101.573C162.222 105.305 166.104 106.001 169.366 107.863C170.728 108.586 172.131 109.23 173.568 109.792C174.144 110.096 174.794 110.233 175.448 110.189C176.102 110.145 176.734 109.922 177.275 109.544C177.817 109.165 178.247 108.646 178.518 108.044C178.789 107.441 178.892 106.778 178.814 106.126C178.646 103.804 178.622 101.461 177.006 99.5337C175.635 97.9042 176.876 96.2972 177.539 94.8801C178.202 93.4629 179.707 94.3619 180.819 94.5411C184.131 95.082 187.321 96.3397 190.522 97.0799C193.06 97.8071 195.734 97.9689 198.359 97.5541C200.984 97.1393 203.496 96.1577 205.723 94.6776C207.73 93.2237 209.192 94.0673 210.81 95.0981C212.429 96.1289 213.59 97.9469 215.412 96.7885C217.234 95.6302 217.243 93.357 217.456 91.3507C217.512 90.6922 216.364 89.4986 218.141 89.4024C222.124 91.4478 222.124 91.4479 220.287 95.4451C218.787 98.6717 219.961 100.39 223.811 100.513L225.405 101.744L225.895 103.175C225.826 104.437 225.719 105.692 227.43 105.961C229.141 106.23 230.88 106.63 232.618 106.81C234.817 107.061 237.242 106.851 236.785 110.291C236.834 110.554 236.95 110.799 237.123 111.001C237.295 111.204 237.518 111.357 237.769 111.446C239.785 111.403 240.947 112.914 242.308 113.943C242.74 114.277 243.226 114.652 243.782 114.38C244.337 114.107 244.418 113.249 244.329 112.61C244.228 111.953 244.061 111.31 243.829 110.689C243.376 109.462 242.514 108.204 243.961 107.085C246.193 105.367 248.789 105.552 251.343 105.902C253.287 106.176 251.349 108.099 252.443 108.944C254.362 107.277 255.747 105.076 256.416 102.628C256.56 102.028 256.869 101.479 257.306 101.041C257.743 100.604 258.291 100.296 258.888 100.152C259.608 99.9184 260.33 100.016 260.514 100.838C260.91 103.117 263.351 103.753 264.523 105.447C265.262 106.5 266.849 107.572 268.033 105.592C268.87 104.2 269.896 102.844 267.49 101.577C264.69 100.094 262.18 98.0678 258.981 97.3517C258.479 97.2486 257.954 97.3696 257.751 96.5992C257.002 93.8282 255.186 91.0438 258.456 88.3729C259.208 87.5337 259.713 86.5027 259.913 85.3979C260.038 84.8512 260.298 84.3429 260.67 83.9205C261.041 83.4981 261.512 83.1754 262.037 82.9823C265.611 81.9184 269.24 81.0604 272.905 80.4124C273.175 80.3973 273.441 80.3233 273.682 80.1955C273.924 80.0677 274.135 79.8892 274.303 79.6724C274.47 79.4556 274.589 79.2057 274.652 78.9398C274.715 78.6739 274.719 78.3985 274.665 78.1326C274.653 77.292 274.35 76.4864 273.81 75.853C273.269 75.2196 272.524 74.7974 271.7 74.6583C270.053 74.3069 268.126 72.4463 266.711 74.949C264.588 78.7031 261.096 78.813 257.558 78.8434C251.564 78.9279 248.11 83.2328 249.348 89.1665C249.847 91.591 249.285 93.24 246.462 93.0988C242.308 92.8943 239.701 94.455 238.46 98.7145C238.145 99.3826 237.619 99.9301 236.966 100.271C236.312 100.612 235.568 100.726 234.85 100.597C231.9 100.006 228.866 99.4397 226.677 97.0256C226.537 96.566 225.965 95.6864 226.625 95.6696C231.097 95.4621 229.034 92.3554 228.431 90.903C228.04 90.2323 227.831 89.4688 227.823 88.6866C227.815 87.9044 228.009 87.1301 228.386 86.4391C228.97 85.4871 229.554 84.5351 230.125 83.5727C230.305 83.3393 230.602 82.9547 230.624 82.9272C230.298 82.4561 229.94 82.6402 229.619 83.028C226.924 83.1394 224.407 83.7175 222.967 80.0834C221.526 76.4493 221.438 73.465 223.71 70.4397C225.425 67.9392 227.801 65.9646 230.564 64.743C233.327 63.5215 236.364 63.1028 239.327 63.5349C244.367 64.1828 248.748 63.9264 252.772 60.0838C255.487 57.8969 258.68 56.3973 262.076 55.7142C264.028 54.7222 266.358 54.6362 268.087 53.0116C268.681 53.4705 269.214 53.115 269.796 53.0599C271.531 53.2182 273.281 52.8413 274.813 51.9794C274.813 51.9794 275.051 51.9222 275.104 51.8536C275.158 51.7849 275.235 51.5162 275.301 51.3476C275.686 52.1054 276.268 51.5466 276.759 51.553C278.188 51.6456 279.621 51.3516 280.909 50.7019L281.99 50.9224C282.072 51.0771 282.185 51.2125 282.322 51.3202C282.459 51.4278 282.618 51.5054 282.788 51.5479C282.958 51.5905 283.135 51.5971 283.309 51.5673C283.482 51.5375 283.648 51.4719 283.796 51.3748C287.728 51.5607 291.144 52.6644 293.149 56.4054C293.726 57.3583 294.496 58.1769 295.41 58.8095C297.26 60.2384 298.212 61.6309 296.793 64.1094C295.776 65.8453 296.693 67.5618 298.096 68.8431C303.413 73.739 306.116 80.2334 308.88 86.7317C309.941 89.239 308.681 90.5905 307.049 91.8949C306.332 92.6162 305.394 93.0716 304.392 93.1843C303.39 93.297 302.385 93.0601 301.547 92.5137C297.877 90.0079 294.894 87.0026 293.869 82.4396C293.831 81.99 293.617 81.5765 293.276 81.288C292.934 80.9995 292.491 80.8591 292.042 80.897C291.011 81.0874 290.914 82.2183 290.881 83.0702C290.861 83.515 290.829 84.1701 291.059 84.3475C295.076 87.1865 291.718 89.943 290.816 92.6455C289.915 95.3479 290.927 99.0898 292.911 100.402C293.309 100.721 293.805 100.893 294.319 100.892C294.832 100.891 295.333 100.716 295.741 100.395C296.584 99.6656 295.399 99.0788 295.291 98.3814C295.034 96.9552 292.287 95.4036 294.551 94.2583C296.538 93.2492 296.719 96.0858 297.508 97.3531C297.936 98.1266 298.299 98.9353 298.594 99.7708C298.891 100.504 299.16 101.216 300.188 101.002C301.216 100.787 301.617 100.658 301.902 99.4528C302.606 96.3352 308.291 94.8931 310.424 97.1551C310.944 97.7102 311.043 99.1457 312.26 98.1561C312.978 97.5051 314.306 96.8198 313.615 95.453C313.319 94.8304 312.796 94.1407 313.557 93.7417C316.579 92.1732 315.675 89.1287 316.436 86.384C318.005 87.8147 318.751 89.6406 320.272 90.8812C321.793 92.1219 320.413 93.1829 318.992 93.7953C317.57 94.4076 315.441 95.1536 316.668 97.3066C317.766 99.207 319.504 99.4968 321.757 98.3652C325.055 96.5363 328.909 96.0479 332.512 97.002C334.018 97.3975 335.529 97.5342 335.009 99.9388C334.746 101.117 336.115 101.298 337.193 101.187C338.983 100.991 340.708 101.884 342.245 101.932C346.044 102.037 344.918 104.5 345.043 106.46C349.685 105.419 350.505 103.575 348.381 99.347C347.993 98.6802 347.659 97.9825 347.383 97.2608C347.087 96.2207 347.257 95.1903 348.437 94.8077C349.616 94.425 349.897 95.5409 350.044 96.3559C350.654 98.8348 352.106 101.01 354.152 102.51C356.85 104.819 358.653 108.009 359.253 111.537C359.247 112.157 359.369 112.769 359.611 113.334C359.854 113.899 360.213 114.405 360.664 114.82C360.635 115.499 360.341 116.215 360.971 116.767C361.172 117.317 361.565 117.226 361.985 117.046C362.612 116.932 363.178 116.586 363.571 116.078C363.964 115.569 364.155 114.935 364.106 114.299L364.116 112.947C364.231 112.622 364.233 112.269 364.121 111.947C364.008 111.625 363.789 111.353 363.499 111.177C362.837 109.438 364.35 107.953 364.11 106.255C364.261 105.945 364.33 105.603 364.31 105.261C364.291 104.919 364.183 104.59 363.998 104.305L364.33 102.368L365.028 100.32L365.876 99.2214C367.225 98.5086 369.041 98.2229 368.678 96.013C368.958 94.3659 371.205 94.3035 371.442 92.6009L372.527 91.5312C375.557 90.7354 377.009 93.2381 378.65 94.7693C379.686 95.7448 377.619 96.6913 377.414 97.8491C377.19 97.9924 377.016 98.2033 376.918 98.451C376.82 98.6987 376.802 98.9701 376.869 99.2256C375.721 100.801 375.031 102.661 374.878 104.595C374.706 105.395 374.832 106.225 375.231 106.929C375.102 107.487 374.997 108.042 374.882 108.61C373.5 110.463 372.667 112.664 372.481 114.956C371.636 117.921 372.65 121.27 370.397 123.937L370.248 124.743C367.061 128.618 363.597 128.749 359.793 125.439C360.764 127.798 362.392 129.816 364.485 131.255C364.759 131.531 365.108 131.719 365.489 131.796C365.871 131.872 366.269 131.834 366.633 131.686C370.02 130.092 373.059 127.747 374.181 124.229C374.857 122.098 375.601 121.357 377.546 121.324C379.49 121.291 380.302 122.334 379.854 124.225C379.59 125.313 379.248 126.382 378.829 127.423C377.288 131.233 377.357 131.395 381.618 132.801C382.008 130.23 379.59 127.945 381.489 124.983C382.151 123.959 381.101 119.903 377.944 119.022C376.476 118.327 374.182 118.309 375.025 115.627L375.937 114.446C376.523 114.09 376.949 113.518 377.122 112.855C377.295 112.192 377.201 111.491 376.86 110.906C377.434 109.66 378.426 108.431 377.03 107.112C377.048 107.014 377.039 106.913 377.004 106.821C376.969 106.728 376.91 106.647 376.832 106.587L376.751 104.989L379.806 101.341C380.547 101.079 380.961 100.654 380.664 99.8108L380.818 98.7459L380.878 97.9149L382.228 96.5018L382.944 96.1337C383.808 96.1872 384.734 95.3234 385.534 96.3803C385.361 96.7725 385.201 97.1752 385.041 97.5779C383.446 99.2794 382.284 101.34 381.655 103.58L381.123 104.967C381.065 108.979 384.641 109.876 387.115 112.423C387.177 108.546 383.891 107.609 382.717 105.277L383.494 103.684C384.905 103.7 386.597 104.524 387.114 102.095C387.186 101.883 387.303 101.689 387.455 101.525C387.608 101.361 387.794 101.231 388 101.145C388.206 101.058 388.427 101.017 388.649 101.024C388.87 101.031 389.087 101.085 389.284 101.184L390.043 102.296C390.053 102.558 390.135 102.811 390.28 103.027C390.425 103.244 390.627 103.415 390.863 103.522C391.329 104.846 391.783 106.184 392.307 107.487C392.718 108.462 392.328 110.112 394.214 109.903L395.781 111.113L396.261 112.054L396.71 113.036C396.694 113.923 396.426 114.549 395.357 114.425C392.578 114.143 391.804 115.453 392.43 118.019C392.462 118.572 392.378 119.127 392.185 119.649C391.486 122.508 392.348 124.38 395.029 124.872C394.163 120.41 396.98 116.512 397.403 112.278C397.448 112.229 397.472 112.164 397.471 112.098C397.47 112.032 397.444 111.97 397.397 111.923C397.485 111.574 397.462 111.207 397.332 110.875C397.202 110.543 396.972 110.261 396.673 110.07C396.281 108.539 396.263 106.859 394.984 105.696L393.583 104.328C394.183 103.59 394.53 102.679 394.571 101.734C394.613 100.788 394.346 99.86 393.812 99.0899C394.791 98.4646 394.092 96.8287 395.43 96.4366L397.734 96.7472C397.951 97.0686 398.253 97.3219 398.607 97.4793C398.962 97.6366 399.354 97.692 399.741 97.639L400.362 97.8117C400.849 98.0251 401.369 98.1531 401.902 98.1901C404.313 97.8597 406.166 97.7778 404.924 101.116C404.872 101.247 404.848 101.387 404.855 101.528C404.862 101.668 404.899 101.804 404.964 101.927C405.029 102.05 405.12 102.157 405.231 102.241C405.342 102.324 405.47 102.382 405.606 102.41C405.853 102.541 406.137 102.586 406.414 102.539C406.692 102.492 406.948 102.356 407.144 102.151C407.739 101.652 408.205 101.013 408.497 100.294C408.789 99.574 408.9 98.7955 408.818 98.0283C408.286 95.8984 408.22 93.6707 408.624 91.4973C409.638 91.6157 410.668 91.5177 411.649 91.2098C412.63 90.9019 413.539 90.391 414.316 89.7103C416.554 87.4265 418.576 88.0457 420.925 88.5221C422.07 88.7705 423.298 89.3022 424.369 88.2221C425.184 88.4788 426.292 88.5235 426.406 89.5763C426.653 93.1652 428.453 91.4203 429.924 90.6048C431.043 90.3287 432.295 95.3518 433.316 90.4838C439.283 92.1101 436.623 85.5607 439.281 84.1279C439.901 83.7729 440.236 82.8918 440.784 82.3501C441.627 81.51 442.587 80.0153 443.725 80.719C444.47 81.0755 445.083 81.657 445.48 82.3834C445.876 83.1098 446.037 83.9453 445.939 84.7752C445.782 85.5089 445.142 86.1984 445.976 86.8209C448.029 88.4063 449.839 89.804 447.154 92.5543C446.498 93.2092 447.573 93.7986 449.472 93.4892C451.371 93.1799 452.453 92.086 454.411 92.6774C458.322 93.9221 457.916 97.6865 459.111 100.298C460.088 102.412 459.461 105.261 459.556 107.79C456.426 110.196 453.676 113.115 450.103 114.894C449.912 115.141 449.732 115.374 449.541 115.622C449.386 117.19 448.215 117.338 446.984 117.703C445.753 118.069 443.969 118.62 443.405 120.355C443.207 120.947 442.966 122.208 443.813 121.81C446.063 120.851 448.43 121.583 450.696 121.272C450.5 119.739 448.689 119.963 448.653 118.334C450.183 118.223 452.082 116.379 452.375 119.74C452.416 120.385 453.399 120.816 454.274 120.659C454.492 120.9 454.786 121.058 455.108 121.107C455.43 121.157 455.761 121.095 456.047 120.932C456.897 120.864 457.674 120.807 458.014 121.903C458.353 122.998 458.832 123.104 459.725 122.479C461.764 123.327 463.681 124.439 465.428 125.787C465.868 126.807 468.319 126.09 467.669 127.518C465.898 131.347 468.811 131.623 470.964 132.716L472.62 133.754C476.283 135.683 476.562 135.657 477.284 133.299L477.497 132.017C478.558 130.643 479.689 131.385 480.833 131.83L484.095 133.999L485.256 134.896L486.153 135.829L488.079 139.839L488.296 141.848C487.84 142.438 487.677 143.123 488.208 143.775C488.307 144.597 489.071 145.45 488.184 146.235C487.145 146.659 484.285 145.7 486.381 148.569C486.586 149.611 487.079 150.568 487.803 151.334L489.451 155.063L489.966 156.797C489.893 156.911 489.845 157.039 489.823 157.172C489.802 157.305 489.809 157.44 489.843 157.57C489.877 157.699 489.937 157.82 490.021 157.924C490.104 158.027 490.208 158.112 490.327 158.172C490.637 158.412 491.225 158.406 491.176 157.688C491.937 156.769 492.342 155.609 492.316 154.425C492.832 153.908 493.134 153.216 493.162 152.491L494.475 151.071L495.583 151.729L495.353 152.363C494.859 154.174 496.463 154.163 497.402 154.735C498.412 156.721 500.196 153.406 501.291 155.282C501.58 156.778 502.65 156.705 503.791 156.512L504.998 157.071L506.261 157.696L507.505 158.152C508.272 158.526 508.628 159.963 509.802 159.225C510.408 158.859 510.294 158.114 509.843 157.524C509.974 156.573 509.764 155.534 510.486 154.71C510.717 154.522 510.867 154.253 510.905 153.959C510.943 153.665 510.866 153.369 510.689 153.135C510.359 151.608 512.876 151.951 512.491 150.383C513.153 149.052 514.011 149.364 514.903 150.052C516.253 151.095 517.573 151.983 518.901 152.943C519.092 153.251 519.362 153.502 519.684 153.67C520.005 153.837 520.367 153.915 520.731 153.896L521.839 154.554L523.467 155.965L523.473 156.123L522.917 157.514C522.434 157.615 522 157.887 521.696 158.281C521.392 158.675 521.238 159.163 521.262 159.656C521.022 160.107 521.074 160.541 521.609 160.603C521.985 160.625 522.359 160.522 522.675 160.311C522.99 160.099 523.229 159.789 523.355 159.431C524.328 158.757 525.315 158.094 526.354 157.362L528.832 158.705L530.507 161.644C530.155 162.994 529.454 164.404 531.128 165.39C530.626 166.208 530.718 166.674 531.796 166.563C533.836 166.714 533.88 168.918 534.925 170.077C534.925 171.501 533.848 173.454 536.566 173.536L537.253 173.651L541.195 174.13L542.98 174.806C543.176 175.07 543.442 175.274 543.748 175.394C544.055 175.515 544.389 175.548 544.716 175.489C548.074 176.724 552.254 178.264 551.24 182.48C550.274 186.382 552.222 188.522 553.569 191.273C553.76 191.639 554.02 191.972 554.426 192.592C556.085 189.159 558.293 190.097 560.562 191.346C561.957 192.235 563.488 192.891 565.097 193.291C566.55 193.559 567.917 193.715 568.806 192.034C569.207 191.291 569.74 190.321 570.862 190.991C571.071 191.114 571.25 191.282 571.388 191.481C571.526 191.681 571.619 191.909 571.662 192.15C571.705 192.39 571.696 192.638 571.636 192.876C571.576 193.114 571.466 193.338 571.314 193.532C568.191 196.821 571.833 199.086 572.332 201.817C572.476 202.608 573.398 202.838 574.237 202.784C575.406 202.722 575.107 201.658 575.375 201.032C576.224 198.815 574.933 196.941 574.387 194.941C574.149 194.077 573.843 193.161 574.614 192.441C575.386 191.722 576.221 192.454 577.018 192.763C583.521 195.226 589.248 199.354 593.637 204.743C597.338 209.136 600.838 213.9 605.85 217.07C608.038 218.452 606.92 220.681 607.186 222.486C607.305 223.587 606.436 225.328 608.478 225.085C610.519 224.842 608.575 223.647 608.716 222.879C609.115 220.994 609.423 219.785 611.905 220.452C612.785 220.665 613.612 221.053 614.337 221.592C615.061 222.131 615.67 222.811 616.128 223.593C616.585 224.374 616.882 225.242 617.001 226.145C617.12 227.048 617.059 227.969 616.821 228.854C616.692 229.569 616.298 230.212 615.717 230.652C615.137 231.092 614.415 231.296 613.699 231.222C611.958 231.215 611.367 231.811 611.779 233.708C612.19 235.604 610.721 238.175 612.211 240.378C612.687 241.074 611.514 241.616 610.917 242.054C610.32 242.492 609.792 241.975 609.216 241.464C606.867 239.453 604.532 237.452 604.015 233.654C602.561 235.118 601.472 236.25 599.746 235.246C598.02 234.242 598.567 233.283 599.147 231.889C599.623 230.744 598.642 229.92 597.574 229.907C597.298 229.881 597.019 229.914 596.754 230.002C596.49 230.09 596.245 230.232 596.036 230.418C595.827 230.605 595.658 230.833 595.54 231.087C595.422 231.341 595.357 231.616 595.349 231.894C595.392 232.773 595.557 233.639 595.842 234.467C596.255 235.872 596.132 237.389 595.498 238.725C594.864 240.062 593.763 241.123 592.408 241.704C590.659 242.546 589.075 243.033 588.16 240.616C587.902 239.89 587.499 238.68 586.451 239.033C585.884 239.209 585.434 240.155 585.093 240.791C584.56 242.067 585.574 242.346 586.457 242.458C589.119 242.781 588.533 245.354 589.286 246.835C590.575 249.41 592.952 251.859 591.516 255.31C591.145 256.208 591.858 257.044 592.417 257.717C593.805 259.381 592.301 260.324 591.484 261.381C590.667 262.439 589.451 262.004 588.587 261.336C586.761 259.707 585.204 259.798 582.959 261.002C580.714 262.206 578.107 263.153 575.681 264.283C573.064 265.282 570.897 267.222 569.606 269.721C568.842 271.324 568.171 271.858 566.789 269.739C565.685 267.987 563.919 264.913 560.731 267.757C560.069 268.363 559.502 268.343 558.818 267.442C557.608 265.827 555.502 266.152 553.865 265.48C553.713 265.428 553.549 265.417 553.389 265.448C553.23 265.478 553.08 265.549 552.955 265.654C552.597 266.061 552.355 266.557 552.257 267.088C551.942 270.594 547.173 272.414 548.637 276.549C548.747 276.853 548.781 277.34 549.002 277.445C551.625 278.681 550.139 280.801 550.067 282.653C549.58 282.956 549.216 283.426 549.043 283.973C548.869 284.521 548.899 285.11 549.126 285.631C549.087 285.85 548.989 286.055 548.841 286.222C546.224 286.065 544.616 287.059 544.641 289.929C544.692 290.138 544.68 290.357 544.607 290.56C544.479 290.679 544.376 290.822 544.305 290.981C544.234 291.14 544.196 291.311 544.194 291.485C544.192 291.658 544.225 291.829 544.292 291.988C544.359 292.146 544.458 292.288 544.583 292.406C544.629 293.406 544.762 294.408 544.733 295.394C544.704 296.38 544.4 297.11 543.346 296.296C539.768 293.532 538.871 296.787 537.576 298.966C534.989 303.348 532.361 307.589 527.446 309.933C525.846 310.692 524.768 312.535 523.393 313.841C522.579 314.615 521.407 314.96 520.766 314.004C519.974 312.713 521.282 312.583 522.208 312.137C523.721 311.266 524.934 309.949 525.679 308.369C526.425 306.788 526.667 305.021 526.371 303.314C525.63 299.484 526.003 295.503 527.446 291.844C528.553 289.125 527.275 286.23 528.825 283.415C530.564 280.158 533.047 277.355 536.066 275.238C541.044 271.781 544.513 267.093 548.298 262.583C549.021 261.445 550.011 260.499 551.178 259.831C552.436 259.356 553.538 258.53 554.351 257.452C555.165 256.374 555.656 255.089 555.767 253.749C555.754 253.384 555.82 253.018 555.961 252.678C556.102 252.338 556.315 252.032 556.585 251.781C556.855 251.53 557.175 251.34 557.523 251.225C557.871 251.11 558.239 251.072 558.601 251.114C558.738 251.134 558.879 251.126 559.014 251.089C559.15 251.053 559.277 250.989 559.387 250.901C559.497 250.813 559.589 250.704 559.655 250.579C559.722 250.455 559.763 250.319 559.775 250.179C559.77 249.906 559.697 249.64 559.562 249.405C559.426 249.17 559.234 248.975 559.001 248.836C556.544 246.938 555.518 247.177 553.999 250.037C552.605 252.623 550.631 254.853 548.236 256.55C547.074 257.384 546.337 256.552 545.606 256.075C544.61 255.438 545.26 254.624 545.519 253.815C545.777 253.006 548.878 251.893 546.109 250.259C541.201 247.345 539.647 247.46 537.861 250.247C536.679 252.14 535.565 254.197 533.355 255.077C531.144 255.957 530.609 256.705 532.26 258.616C533.387 259.948 533.38 261.213 531.048 260.772C529.406 260.468 527.724 262.283 526.094 260.542C525.249 259.626 523.682 259.534 525.061 257.552C525.804 256.59 522.165 252.508 520.487 252.308C515.433 251.743 510.48 250.54 505.745 248.729C505.478 248.58 505.182 248.488 504.877 248.459C504.571 248.429 504.261 248.464 503.967 248.559C503.673 248.655 503.401 248.81 503.167 249.014C502.933 249.218 502.743 249.468 502.607 249.748C500.847 252.949 497.867 254.462 494.797 256.148C491.176 258.374 487.674 260.793 484.307 263.394C483.855 263.306 483.385 263.351 482.954 263.523C482.523 263.695 482.148 263.988 481.874 264.366C481.408 264.97 482.16 265.42 482.742 265.672C483.074 266.009 483.483 266.26 483.936 266.403C484.388 266.546 484.87 266.578 485.34 266.494C483.936 269.094 486.047 271.162 486.337 273.579C486.387 274.1 487.147 274.205 487.689 274.229C489.762 274.141 487.984 272.088 489.092 271.519L490.672 272.739C492.842 273.977 493.186 276.435 494.359 278.35C493.099 282.047 492.313 285.912 489.761 289.05C488.643 290.971 487.332 292.809 487.758 295.243C487.953 296.359 487.086 297.092 486.438 297.819C483.785 300.835 480.362 303.257 477.902 306.246C473.978 311.021 468.622 312.958 463.745 315.923C461.632 317.207 460.541 317.001 460.416 314.316C460.29 311.632 458.69 310.967 456.66 312.227C453.309 314.222 449.068 315.134 447.435 319.398C447.042 320.41 446.437 320.272 445.321 319.958C442.251 318.881 441.142 320.261 441.629 323.399C442.302 326.766 442.538 330.213 442.332 333.655C441.974 336.909 438.513 338.292 436.338 340.383C435.215 341.446 433.946 339.852 433.011 339.108C430.864 337.449 431.473 332.724 433.904 331.028C436.336 329.331 436.578 327.063 434.479 325.091C433.097 323.782 434.503 322.018 434.879 321.782C436.896 320.314 437.16 318.829 435.738 316.985C434.316 315.142 432.61 313.693 430.102 314.54C428.794 314.977 427.678 315.892 426.946 313.88C426.215 311.868 427.84 311.522 429.068 311.133C431.25 310.428 432.55 309.612 430.91 307.184C430.299 306.273 429.915 305.933 428.893 306.809C426.877 308.462 424.379 309.396 421.797 309.464C420.291 309.572 418.172 313.571 418.455 315.829C418.738 318.087 420.377 317.445 421.806 317.408C423.713 317.368 425.914 319.265 428.343 323.071C425.234 322.957 422.117 323.048 419.013 323.342C416.793 323.425 416.104 324.318 416.205 326.392C416.171 327.503 416.296 328.611 416.575 329.681C417.373 331.975 417.505 334.46 416.954 336.848C416.403 339.235 415.193 341.429 413.463 343.174C409.673 347.439 406.081 351.812 400.766 354.395C397.385 355.834 393.835 356.816 390.21 357.315C389.453 357.491 388.662 357.361 388.01 356.953C385.181 354.418 381.291 355.184 378.137 353.713C377.621 353.542 377.06 353.558 376.549 353.759C373.438 354.995 371.438 355.38 371.938 350.768C372.09 349.482 370.047 348.386 368.223 348.096C365.564 347.687 362.383 347.73 361.081 349.64C360.243 350.83 359.767 352.235 359.712 353.68C359.657 355.126 360.024 356.55 360.77 357.775C361.81 359.232 362.312 361.012 362.192 362.816C362.071 364.621 361.334 366.338 360.107 367.678C359.766 368.245 359.489 368.847 359.281 369.474C358.537 370.939 359.198 373.181 357.437 373.926C354.941 375.243 352.113 375.755 349.342 375.392C348.416 375.059 347.424 374.941 346.44 375.046C345.456 375.151 344.504 375.477 343.655 375.999C343.499 376.121 343.32 376.211 343.129 376.263C342.938 376.314 342.74 376.327 342.545 376.3C342.351 376.273 342.164 376.206 341.997 376.104C341.83 376.002 341.686 375.867 341.574 375.707C341.428 375.58 341.309 375.426 341.223 375.252C341.138 375.078 341.088 374.888 341.076 374.694C341.064 374.499 341.09 374.303 341.154 374.118C341.217 373.932 341.316 373.76 341.445 373.612C342.151 372.617 342.537 371.432 342.552 370.219C342.567 369.006 342.209 367.824 341.527 366.835C340.939 366.046 340.548 365.126 340.384 364.15C340.22 363.174 340.288 362.169 340.583 361.217C340.688 360.376 340.586 359.526 340.287 358.74C339.988 357.955 339.5 357.258 338.867 356.712C337.692 355.804 336.367 357.631 335.289 358.553C331.682 361.994 330.03 366.507 328.633 371.107C328.222 372.477 329.302 373.618 329.86 374.795C331.123 377.458 332.124 379.986 330.071 382.895C329.354 383.964 329.648 385.704 329.476 387.128C328.765 388.048 328.055 388.968 327.26 389.802L326.226 390.582C325.658 390.162 325.223 389.587 324.972 388.924C324.721 388.26 324.664 387.535 324.809 386.834C325.062 384.629 324.436 382.428 323.07 380.711C322.674 379.997 322.503 379.176 322.58 378.355C322.656 377.534 322.976 376.752 323.498 376.109C324.426 375.017 325.066 373.711 325.357 372.313C325.648 370.916 325.581 369.472 325.162 368.119C324.085 364.656 327.194 362.167 329.194 359.744C333.613 354.386 336.892 347.293 337.225 341.389C336.102 340.806 335.359 341.768 334.58 342.219C333.422 342.881 332.426 343.361 331.266 342.378C330.758 341.947 330.389 341.373 330.205 340.728C330.021 340.084 330.03 339.396 330.23 338.75C330.456 337.762 330.949 336.853 331.655 336.123C335.152 332.991 333.878 329.924 331.788 326.907C330.777 325.424 331.742 324.174 331.88 322.768C332.018 321.361 333.695 319.105 332.276 318.513C329.98 317.551 328.591 314.659 325.739 315.197C322.888 315.735 319.652 315.626 316.662 316.957C312.684 318.73 308.354 317.776 304.221 317.237C301.444 316.868 298.805 317.242 297.208 319.254C294.854 322.303 291.792 324.871 290.134 328.414C289.996 328.776 289.742 329.082 289.414 329.285C289.085 329.488 288.7 329.576 288.32 329.535C286.438 329.682 284.559 329.854 282.679 329.915C279.944 329.995 278.558 328.552 279.64 326.033C283.004 318.216 283.388 309.764 285.631 301.695C286.764 297.421 288.482 293.317 290.736 289.501C289.545 288.252 288.273 289.396 287.137 288.913C286.723 288.221 287.832 287.455 287.472 287.111C285.145 284.876 284.253 283.156 288.298 281.632C289.025 281.36 288.27 279.155 287.216 278.231C285.664 276.835 284.177 275.884 285.257 273.034C285.815 271.558 284.433 269.328 282.627 268.065C277.957 264.787 273.359 261.39 268.804 258.047C266.428 256.322 264.5 254.547 265.683 250.922C266.426 248.536 265.697 246.548 262.294 246.266C261.698 246.216 261.12 246.047 260.594 245.768C260.068 245.489 259.605 245.107 259.232 244.643C258.859 244.179 258.583 243.643 258.421 243.067C258.259 242.49 258.215 241.886 258.29 241.288C258.404 240.415 258.251 239.532 257.852 238.757C256.573 236.553 256.085 233.965 256.469 231.418C256.616 230.924 256.638 230.403 256.535 229.902C256.431 229.401 256.206 228.935 255.877 228.547C255.549 228.159 255.129 227.86 254.654 227.677C254.179 227.495 253.664 227.434 253.156 227.501C252.641 227.439 252.115 227.514 251.633 227.718C251.151 227.923 250.728 228.249 250.406 228.665C250.085 229.082 249.876 229.573 249.8 230.092C249.724 230.61 249.784 231.137 249.974 231.621C251.402 235.355 249.527 239.542 252.028 242.92C252.163 243.024 251.805 243.515 251.781 243.826C251.694 245.446 249.159 246.69 250.978 248.577C253.661 251.329 256.692 253.1 260.717 251.713C261.011 251.612 261.332 251.531 262.228 251.236C260.277 255.715 261.705 258.836 264.651 261.637C265.325 262.22 265.756 263.035 265.863 263.927C265.97 264.819 265.745 265.724 265.231 266.47C264.099 268.271 262.659 268.321 260.935 267.537C260.492 267.308 259.992 267.207 259.491 267.245C258.989 267.284 258.506 267.46 258.094 267.755C255.095 269.824 252.051 271.42 248.34 269.804C245.022 273.095 242.456 270.192 239.679 268.903C238.445 268.323 237.443 269.369 236.157 269.471C231.277 269.649 226.871 267.76 222.268 266.769C220.268 266.343 218.824 264.724 216.359 264.705C214.347 264.686 212.856 262.987 213.99 259.872C215.124 256.757 216.964 253.705 217.931 250.331C219.36 245.78 219.346 240.918 217.893 236.422C217.375 234.86 218.494 233.466 219.43 232.171C221.046 229.911 222.313 227.601 220.448 224.823C219.736 223.791 220.158 222.406 220.373 221.235C221.079 218.077 221.216 214.826 220.778 211.637C220.681 211.257 220.725 210.851 220.904 210.496C221.083 210.142 221.383 209.863 221.748 209.712C222.693 209.214 223.512 208.07 222.673 207.509C221.621 206.806 220.946 208.127 220.539 209.128C219.816 209.841 219.228 211.383 218.128 209.459C218.147 207.172 218.192 204.882 218.222 202.581L217.063 202.519L216.317 213.059Z" fill="#F16C7D" fill-opacity="0.19"/>
<path d="M472.879 208.085L471.79 210.788L479.029 224.052L476.731 229.758C476.427 230.514 476.421 231.352 476.715 232.087C477.009 232.821 477.578 233.392 478.299 233.675C479.019 233.957 479.831 233.927 480.556 233.592C481.281 233.256 481.859 232.643 482.164 231.886L484.522 226.031L499.014 221.28L500.041 218.728L487.562 218.48L490.205 211.917L495.428 210.66L496.577 207.807L488.637 208L482.995 202.486L481.846 205.339L484.772 209.788L482.081 216.471L472.879 208.085Z" fill="#F06779"/>
<path fill-rule="evenodd" clip-rule="evenodd" d="M299.212 206.21L299.329 206.277L299.376 206.303C299.562 206.403 299.77 206.455 299.982 206.453C300.194 206.451 300.403 206.396 300.59 206.293L300.638 206.267L300.757 206.197C300.86 206.136 301.003 206.049 301.188 205.934C301.554 205.706 302.073 205.368 302.691 204.925C304.314 203.763 305.833 202.458 307.228 201.025C310.522 197.631 313.955 192.543 314.011 186.034C314.043 182.333 312.613 178.795 310.037 176.2C307.462 173.604 303.95 172.164 300.276 172.196C296.601 172.227 293.064 173.728 290.444 176.368C287.823 179.008 286.333 182.57 286.301 186.272C286.246 192.779 289.595 197.81 292.829 201.149C294.2 202.558 295.697 203.837 297.3 204.971C297.92 205.41 298.558 205.823 299.212 206.21ZM300.113 191.229C301.449 191.217 302.735 190.672 303.688 189.712C304.641 188.752 305.183 187.456 305.194 186.11C305.206 184.764 304.686 183.477 303.749 182.534C302.813 181.59 301.536 181.066 300.2 181.078C298.863 181.089 297.577 181.635 296.624 182.595C295.671 183.555 295.13 184.85 295.118 186.197C295.107 187.543 295.626 188.829 296.563 189.773C297.5 190.717 298.777 191.24 300.113 191.229Z" fill="#F06779"/>
</g>
<path d="M469.79 52.3577L466.085 49.1344L440.432 53.7509L432.61 46.947C431.573 46.0448 430.228 45.584 428.87 45.6661C427.513 45.7481 426.255 46.3663 425.373 47.3846C424.491 48.4029 424.057 49.7379 424.166 51.096C424.276 52.454 424.92 53.7238 425.957 54.626L433.984 61.6085L433.027 87.708L436.526 90.751L444.336 70.6133L453.333 78.4394L452.254 87.6006L456.165 91.0025L460.57 78.0019L472.796 71.805L468.886 68.4031L459.985 70.7604L450.824 62.7915L469.79 52.3577Z" fill="#F06779"/>
<path fill-rule="evenodd" clip-rule="evenodd" d="M232.01 98.5251L232.085 98.568L232.115 98.5851C232.233 98.6495 232.366 98.6831 232.501 98.6831C232.636 98.6831 232.768 98.6495 232.887 98.5851L232.917 98.5691L232.993 98.5251C233.057 98.4873 233.148 98.4327 233.265 98.3612C233.497 98.2188 233.825 98.0077 234.216 97.7303C235.242 97.0033 236.2 96.1851 237.08 95.2857C239.157 93.1539 241.313 89.9509 241.313 85.8298C241.313 83.4859 240.385 81.238 238.732 79.5806C237.08 77.9232 234.838 76.9921 232.501 76.9921C230.164 76.9921 227.923 77.9232 226.27 79.5806C224.618 81.238 223.689 83.4859 223.689 85.8298C223.689 89.9498 225.847 93.1539 227.922 95.2857C228.802 96.1851 229.761 97.0033 230.787 97.7303C231.184 98.0115 231.592 98.2767 232.01 98.5251ZM232.501 89.0436C233.351 89.0436 234.166 88.705 234.767 88.1023C235.368 87.4996 235.706 86.6822 235.706 85.8298C235.706 84.9775 235.368 84.1601 234.767 83.5574C234.166 82.9547 233.351 82.6161 232.501 82.6161C231.651 82.6161 230.836 82.9547 230.235 83.5574C229.634 84.1601 229.297 84.9775 229.297 85.8298C229.297 86.6822 229.634 87.4996 230.235 88.1023C230.836 88.705 231.651 89.0436 232.501 89.0436Z" fill="#F06779"/>
<path d="M149.733 101.405L152.499 99.909L155.634 83.6807L161.472 80.5231C162.246 80.1044 162.828 79.4067 163.09 78.5834C163.353 77.7602 163.273 76.879 162.87 76.1335C162.467 75.388 161.773 74.8394 160.94 74.6084C160.108 74.3773 159.205 74.4828 158.431 74.9015L152.44 78.142L137.142 71.8838L134.531 73.296L144.713 82.321L137.999 85.9531L132.799 83.3157L129.88 84.8945L136.6 90.3427L137.482 98.9485L140.401 97.3697L141.039 91.5747L147.877 87.8764L149.733 101.405Z" fill="#F06779"/>
<path d="M594.979 263.67C634.462 268.146 663.743 237.619 465.003 79.7034" stroke="#F3576B" stroke-width="4" stroke-linecap="round" stroke-dasharray="10 10"/>
<path d="M116.589 297.292C58.6336 291.756 -17.0818 241.302 143.703 83.7705" stroke="#F3576B" stroke-width="4" stroke-dasharray="10 10"/>
<path d="M298.252 76.6531C384.339 83.8835 542.142 121.865 484.66 215.951" stroke="#F3576B" stroke-width="4" stroke-dasharray="10 10"/>
<defs>
<clipPath id="clip0_161_368">
<rect width="468.189" height="419.564" fill="white" transform="translate(256.457 -64) rotate(37.6796)"/>
</clipPath>
</defs>
</svg>
