<svg width="633" height="221" viewBox="0 0 633 221" fill="none" xmlns="http://www.w3.org/2000/svg">
<path d="M61.5984 170.764C55.5053 170.764 49.6627 170.18 44.0704 169.011C38.4781 167.926 33.3449 166.215 28.6708 163.878C24.0801 161.541 20.1572 158.703 16.902 155.364C13.5633 151.692 10.8089 147.56 8.6388 142.97C6.55213 138.295 5.008 133.454 4.0064 128.446C3.08827 123.355 2.6292 118.347 2.6292 113.422C2.6292 110.167 3.0048 107.329 3.756 104.909C4.59067 102.488 5.71747 100.443 7.1364 98.774C8.6388 97.0212 10.3499 95.7275 12.2696 94.8928C14.2728 94.0581 16.4012 93.6408 18.6548 93.6408C21.0753 93.6408 23.0785 94.392 24.6644 95.8944C26.2503 97.3968 27.4605 100.151 28.2952 104.158C28.8795 108.665 29.5889 112.796 30.4236 116.552C31.3417 120.225 32.552 123.647 34.0544 126.819C36.4749 131.994 39.6884 135.833 43.6948 138.337C47.7012 140.758 52.5423 141.968 58.218 141.968C63.8937 141.968 68.4427 141.217 71.8648 139.714C75.2869 138.129 78.2917 135.75 80.8792 132.578C83.8005 128.989 86.0541 124.607 87.64 119.432C89.2259 114.174 90.3109 108.289 90.8952 101.779C91.5629 95.1849 91.8968 88.2572 91.8968 80.9956C91.8968 75.0695 91.7716 69.4772 91.5212 64.2188C91.3543 58.9604 91.1456 54.1193 90.8952 49.6956C90.6448 45.1884 90.3527 41.1403 90.0188 37.5512C89.7684 33.9621 89.518 30.8739 89.2676 28.2864C89.1007 25.6155 89.0172 23.4036 89.0172 21.6508C89.0172 18.646 89.4763 16.0585 90.3944 13.8884C91.3125 11.6348 92.9401 9.92373 95.2772 8.75519C97.6977 7.58666 101.203 7.0024 105.794 7.0024C109.467 7.0024 112.597 7.79533 115.184 9.38119C117.855 10.8836 120.109 13.0955 121.945 16.0168C122.946 17.9365 123.865 20.2319 124.699 22.9028C125.617 25.4903 126.41 28.5368 127.078 32.0424C127.746 35.4645 128.288 39.3457 128.706 43.686C129.206 47.9428 129.582 52.6169 129.832 57.7084C130.083 62.7999 130.208 68.3504 130.208 74.36C130.208 85.7115 129.624 95.5188 128.455 103.782C127.37 112.045 125.826 119.14 123.823 125.066C121.903 130.909 119.649 135.958 117.062 140.215C114.558 144.472 111.887 148.228 109.049 151.483C102.789 158.578 95.4441 163.544 87.014 166.382C78.6673 169.303 70.1955 170.764 61.5984 170.764ZM217.335 170.639C203.313 170.639 191.169 168.51 180.902 164.254C170.636 159.997 162.707 153.445 157.114 144.597C151.522 135.666 148.726 124.315 148.726 110.543C148.726 99.1079 150.604 89.1336 154.36 80.62C158.199 72.0229 163.458 64.8448 170.135 59.0856C176.812 53.3264 184.533 49.0279 193.297 46.19C202.061 43.2687 211.409 41.808 221.342 41.808C228.103 41.808 234.488 42.5175 240.497 43.9364C246.591 45.3553 251.974 47.5672 256.648 50.572C261.406 53.4933 265.12 57.2493 267.791 61.84C270.462 66.4307 271.797 71.8977 271.797 78.2412C271.797 85.002 270.379 90.5108 267.541 94.7676C264.703 98.9409 260.822 102.238 255.897 104.658C250.973 106.995 245.38 108.748 239.12 109.917C232.944 111.002 226.475 111.837 219.714 112.421C216.292 113.005 212.244 113.506 207.57 113.923C202.896 114.257 198.347 114.549 193.923 114.8C189.583 114.967 186.202 115.05 183.782 115.05C181.278 115.05 179.567 115.384 178.649 116.052C177.731 116.719 177.271 117.93 177.271 119.682C177.271 121.769 177.856 124.231 179.024 127.069C180.193 129.824 181.862 132.536 184.032 135.207C188.039 140.132 192.671 143.429 197.929 145.098C203.271 146.684 209.823 147.477 217.586 147.477C224.347 147.477 230.523 146.684 236.115 145.098C241.708 143.429 246.716 141.801 251.139 140.215C255.647 138.546 259.695 137.711 263.284 137.711C266.539 137.711 269.085 138.337 270.921 139.589C272.841 140.758 273.801 143.095 273.801 146.6C273.801 149.772 272.34 152.819 269.419 155.74C266.581 158.661 262.616 161.207 257.525 163.377C252.433 165.631 246.465 167.384 239.621 168.636C232.777 169.971 225.348 170.639 217.335 170.639ZM207.445 101.028C214.205 101.028 220.507 100.402 226.35 99.1496C232.193 97.8141 236.908 95.6023 240.497 92.514C244.17 89.3423 246.006 85.002 246.006 79.4932C246.006 72.9828 243.627 68.1 238.87 64.8448C234.112 61.5061 227.435 59.8368 218.838 59.8368C213.746 59.8368 208.78 60.7549 203.939 62.5912C199.098 64.344 194.799 66.8063 191.043 69.978C187.287 73.1497 184.283 76.7388 182.029 80.7452C179.775 84.7516 178.649 89.0501 178.649 93.6408C178.649 95.9779 179.567 97.6889 181.403 98.774C183.323 99.7756 186.369 100.402 190.543 100.652C194.799 100.902 200.433 101.028 207.445 101.028ZM363.004 164.629C358.497 164.629 353.948 163.961 349.357 162.626C344.85 161.291 340.969 158.787 337.713 155.114C334.542 151.358 332.664 146.058 332.079 139.214C331.829 136.793 331.579 134.039 331.328 130.95C331.078 127.862 330.827 124.565 330.577 121.06C330.41 117.471 330.243 113.798 330.076 110.042C329.993 106.203 329.867 102.321 329.701 98.3984C329.617 94.392 329.575 90.4273 329.575 86.5044C329.492 82.7484 328.782 80.2861 327.447 79.1176C326.195 77.9491 324.233 77.2396 321.563 76.9892C319.977 76.8223 317.932 76.6971 315.428 76.6136C313.007 76.5301 310.503 76.4049 307.916 76.238C305.328 76.0711 303.033 75.9041 301.03 75.7372C297.775 75.4033 295.312 74.36 293.643 72.6072C291.974 70.7709 291.139 68.1835 291.139 64.8448C291.139 62.5912 291.598 60.8801 292.516 59.7116C293.518 58.4596 294.895 57.4997 296.648 56.832C298.484 56.1643 300.529 55.7052 302.783 55.4548C307.206 55.0375 310.837 54.6619 313.675 54.328C316.596 53.9941 319.309 53.702 321.813 53.4516C324.484 53.1177 326.362 52.4083 327.447 51.3232C328.615 50.2381 329.367 48.2349 329.701 45.3136C329.867 43.5608 329.993 41.5159 330.076 39.1788C330.243 36.8417 330.41 34.5464 330.577 32.2928C330.827 29.9557 331.078 27.9525 331.328 26.2832C332.246 22.1933 333.54 19.1885 335.209 17.2688C336.879 15.3491 339.55 14.3892 343.222 14.3892C346.227 14.3892 348.564 14.89 350.233 15.8916C351.986 16.8097 353.28 18.2704 354.115 20.2736C354.949 22.2768 355.617 24.8643 356.118 28.036C356.285 30.6235 356.41 32.9188 356.493 34.922C356.66 36.9252 356.785 38.7615 356.869 40.4308C356.952 42.0167 357.036 43.4773 357.119 44.8128C357.286 46.1483 357.453 47.4837 357.62 48.8192C357.871 51.2397 358.663 52.9925 359.999 54.0776C361.334 55.0792 363.296 55.7052 365.883 55.9556C368.137 56.206 370.599 56.4981 373.27 56.832C376.025 57.0824 378.654 57.3328 381.158 57.5832C383.745 57.7501 385.874 58.0005 387.543 58.3344C390.965 58.7517 393.886 59.6699 396.307 61.0888C398.727 62.5077 399.938 64.8448 399.938 68.1C399.938 71.1048 398.978 73.4836 397.058 75.2364C395.138 76.9057 392.509 77.8656 389.171 78.116C384.079 78.1995 379.363 78.2412 375.023 78.2412C370.683 78.1577 367.302 78.1577 364.882 78.2412C362.962 78.4081 361.46 78.9924 360.375 79.994C359.373 80.9121 358.789 83.3327 358.622 87.2556C358.622 90.4273 358.622 93.6825 358.622 97.0212C358.705 100.36 358.789 103.699 358.872 107.037C358.956 110.376 359.081 113.673 359.248 116.928C359.415 120.1 359.623 123.105 359.874 125.942C360.124 128.78 360.416 131.368 360.75 133.705C361.418 138.629 362.628 141.926 364.381 143.596C366.217 145.265 368.638 146.1 371.643 146.1C375.232 146.1 378.028 145.39 380.031 143.971C382.118 142.469 383.87 140.966 385.289 139.464C386.792 137.962 388.461 137.21 390.297 137.21C392.384 137.21 393.886 137.795 394.805 138.963C395.806 140.048 396.307 141.676 396.307 143.846C396.307 146.6 395.305 149.23 393.302 151.734C391.382 154.154 388.795 156.366 385.54 158.369C382.368 160.289 378.821 161.791 374.898 162.876C370.975 164.045 367.01 164.629 363.004 164.629ZM454.028 168.636C445.848 168.636 439.213 166.883 434.121 163.377C429.113 159.955 425.315 154.238 422.728 146.225C420.141 138.212 418.388 127.403 417.47 113.798C417.052 110.376 416.718 106.161 416.468 101.153C416.301 96.0613 416.176 90.5943 416.092 84.7516C416.092 78.8255 416.134 73.0245 416.218 67.3488C416.301 61.5896 416.385 56.2895 416.468 51.4484C416.635 46.5239 416.844 42.5592 417.094 39.5544C417.344 31.5416 417.887 24.9477 418.722 19.7728C419.64 14.5144 421.226 10.5915 423.479 8.004C425.816 5.41653 429.071 4.1228 433.245 4.1228C438.503 4.1228 442.134 5.7504 444.137 9.0056C446.14 12.1773 447.142 17.5192 447.142 25.0312C447.142 27.4517 447.059 30.5817 446.892 34.4212C446.725 38.2607 446.516 42.5175 446.266 47.1916C446.015 51.8657 445.723 56.7068 445.389 61.7148C445.139 66.6393 444.888 71.5221 444.638 76.3632C444.471 81.2043 444.304 85.6697 444.137 89.7596C443.97 93.8495 443.887 97.3551 443.887 100.276C443.887 110.209 444.179 118.305 444.763 124.565C445.431 130.742 446.391 135.541 447.643 138.963C448.895 142.302 450.397 144.639 452.15 145.974C453.986 147.226 456.073 147.852 458.41 147.852C461.582 147.852 464.211 147.268 466.298 146.1C468.468 144.848 470.429 143.637 472.182 142.469C473.935 141.217 475.729 140.591 477.566 140.591C479.569 140.591 481.113 141.3 482.198 142.719C483.367 144.138 483.951 145.974 483.951 148.228C483.951 150.899 483.116 153.486 481.447 155.99C479.777 158.411 477.524 160.539 474.686 162.376C471.932 164.295 468.76 165.798 465.171 166.883C461.582 168.051 457.867 168.636 454.028 168.636ZM509.451 210.452C505.778 210.452 502.857 209.493 500.687 207.573C498.6 205.653 497.557 203.316 497.557 200.562C497.557 197.473 498.725 194.635 501.062 192.048C503.483 189.544 506.696 187.29 510.703 185.287C515.043 182.533 519.383 179.528 523.723 176.273C528.064 173.018 532.028 169.762 535.617 166.507C539.29 163.252 542.211 160.205 544.381 157.368C546.635 154.53 547.762 152.193 547.762 150.356C547.762 148.687 546.551 146.767 544.131 144.597C541.794 142.344 537.996 139.631 532.738 136.459C528.397 133.621 524.057 130.157 519.717 126.068C515.46 121.978 511.454 117.471 507.698 112.546C503.942 107.621 500.603 102.572 497.682 97.3968C494.76 92.2219 492.465 87.1721 490.796 82.2476C489.21 77.2396 488.417 72.6072 488.417 68.3504C488.417 65.596 489.043 63.1337 490.295 60.9636C491.547 58.71 493.258 56.9572 495.428 55.7052C497.598 54.4532 500.061 53.8272 502.815 53.8272C507.239 53.8272 510.995 54.954 514.083 57.2076C517.171 59.3777 520.009 63.3007 522.597 68.9764C526.102 78.6585 530.109 87.6312 534.616 95.8944C539.123 104.158 543.547 111.127 547.887 116.803C550.307 119.724 552.77 122.228 555.274 124.315C557.778 126.401 559.781 127.445 561.283 127.445C563.537 127.445 565.707 126.318 567.794 124.064C569.964 121.811 571.758 119.432 573.177 116.928C577.768 109.666 581.691 101.862 584.946 93.5156C588.201 85.0855 591.415 76.4467 594.587 67.5992C596.59 63.2589 598.927 59.6699 601.598 56.832C604.352 53.9941 607.524 52.5752 611.113 52.5752C616.288 52.5752 619.919 53.9107 622.005 56.5816C624.092 59.2525 625.135 62.7581 625.135 67.0984C625.135 72.1899 624.259 77.9073 622.506 84.2508C620.753 90.5108 618.375 97.0212 615.37 103.782C612.448 110.543 609.193 117.178 605.604 123.689C602.015 130.199 598.301 136.292 594.461 141.968C590.622 147.56 586.949 152.401 583.444 156.491C578.018 162.751 572.092 169.053 565.665 175.396C559.322 181.823 552.811 187.666 546.134 192.924C539.54 198.266 533.072 202.523 526.728 205.695C520.468 208.867 514.709 210.452 509.451 210.452Z" fill="#EF4763"/>
<path d="M274.379 134.378L277.278 135.267C279.126 135.836 280.048 136.12 280.678 136.792C281.308 137.464 281.533 138.402 281.98 140.281L282.684 143.233C284.69 151.639 285.691 155.841 288.183 156.058C290.675 156.27 292.38 152.298 295.786 144.357L305.133 122.555C307.808 116.32 309.145 113.201 307.596 111.549C306.047 109.897 302.848 111.031 296.454 113.3L274.098 121.23C265.955 124.119 261.881 125.566 261.933 128.067C261.985 130.567 266.117 131.834 274.379 134.378Z" fill="#EF4A60"/>
</svg>
