<svg width="151" height="221" viewBox="0 0 151 221" fill="none" xmlns="http://www.w3.org/2000/svg">
<path d="M70.5984 170.764C64.5053 170.764 58.6627 170.18 53.0704 169.011C47.4781 167.926 42.3449 166.215 37.6708 163.878C33.0801 161.541 29.1572 158.703 25.902 155.364C22.5633 151.692 19.8089 147.56 17.6388 142.97C15.5521 138.296 14.008 133.454 13.0064 128.446C12.0883 123.355 11.6292 118.347 11.6292 113.422C11.6292 110.167 12.0048 107.329 12.756 104.909C13.5907 102.488 14.7175 100.443 16.1364 98.7741C17.6388 97.0213 19.3499 95.7275 21.2696 94.8929C23.2728 94.0582 25.4012 93.6409 27.6548 93.6409C30.0753 93.6409 32.0785 94.3921 33.6644 95.8945C35.2503 97.3969 36.4605 100.151 37.2952 104.158C37.8795 108.665 38.5889 112.796 39.4236 116.552C40.3417 120.225 41.552 123.647 43.0544 126.819C45.4749 131.994 48.6884 135.833 52.6948 138.337C56.7012 140.758 61.5423 141.968 67.218 141.968C72.8937 141.968 77.4427 141.217 80.8648 139.714C84.2869 138.129 87.2917 135.75 89.8792 132.578C92.8005 128.989 95.0541 124.607 96.64 119.432C98.2259 114.174 99.3109 108.289 99.8952 101.779C100.563 95.185 100.897 88.2573 100.897 80.9957C100.897 75.0695 100.772 69.4773 100.521 64.2189C100.354 58.9605 100.146 54.1194 99.8952 49.6957C99.6448 45.1885 99.3527 41.1403 99.0188 37.5513C98.7684 33.9622 98.518 30.8739 98.2676 28.2865C98.1007 25.6155 98.0172 23.4037 98.0172 21.6509C98.0172 18.6461 98.4763 16.0586 99.3944 13.8885C100.313 11.6349 101.94 9.92379 104.277 8.75525C106.698 7.58672 110.203 7.00246 114.794 7.00246C118.467 7.00246 121.597 7.79539 124.184 9.38125C126.855 10.8837 129.109 13.0955 130.945 16.0169C131.946 17.9366 132.865 20.2319 133.699 22.9029C134.617 25.4903 135.41 28.5369 136.078 32.0425C136.746 35.4646 137.288 39.3458 137.706 43.6861C138.206 47.9429 138.582 52.617 138.832 57.7085C139.083 62.7999 139.208 68.3505 139.208 74.3601C139.208 85.7115 138.624 95.5189 137.455 103.782C136.37 112.045 134.826 119.14 132.823 125.066C130.903 130.909 128.649 135.958 126.062 140.215C123.558 144.472 120.887 148.228 118.049 151.483C111.789 158.578 104.444 163.544 96.014 166.382C87.6673 169.303 79.1955 170.764 70.5984 170.764Z" fill="#EF4763"/>
<path d="M14.8864 82.4961L17.4789 80.9232C19.1333 79.9215 19.9588 79.4225 20.8796 79.399C21.8004 79.3755 22.6503 79.8318 24.3502 80.748L27.0229 82.1866C34.6335 86.2808 38.4371 88.3279 40.2569 86.6119C42.0731 84.8925 40.2413 80.9766 36.5779 73.1516L26.5182 51.6689C23.6424 45.5246 22.2027 42.4508 19.9388 42.5085C17.6749 42.5662 16.3937 45.7095 13.8348 51.9924L4.88331 73.9599C1.62351 81.9615 -0.0063027 85.9657 1.89523 87.5903C3.79676 89.2148 7.49095 86.973 14.8864 82.4961Z" fill="#EF4A60"/>
</svg>
